<svg xmlns="http://www.w3.org/2000/svg" xmlns:xlink="http://www.w3.org/1999/xlink" width="500" zoomAndPan="magnify" viewBox="0 0 375 374.999991" height="500" preserveAspectRatio="xMidYMid meet" version="1.0"><defs><g/><clipPath id="1bb945c644"><path d="M 99 38 L 255 38 L 255 205 L 99 205 Z M 99 38 " clip-rule="nonzero"/></clipPath><clipPath id="f348fb4408"><path d="M -20.925781 71.980469 L 347.097656 -0.03125 L 395.632812 248.015625 L 27.609375 320.027344 Z M -20.925781 71.980469 " clip-rule="nonzero"/></clipPath><clipPath id="7ea07c0e96"><path d="M -20.9375 71.921875 L 347.085938 -0.0898438 L 395.765625 248.695312 L 27.742188 320.707031 Z M -20.9375 71.921875 " clip-rule="nonzero"/></clipPath><clipPath id="c44d35edef"><path d="M -20.9375 71.921875 L 347.085938 -0.0898438 L 395.765625 248.695312 L 27.742188 320.707031 Z M -20.9375 71.921875 " clip-rule="nonzero"/></clipPath><clipPath id="64ea258eea"><path d="M 69 58 L 137 58 L 137 255 L 69 255 Z M 69 58 " clip-rule="nonzero"/></clipPath><clipPath id="ea72d09f6f"><path d="M -20.925781 71.980469 L 347.097656 -0.03125 L 395.632812 248.015625 L 27.609375 320.027344 Z M -20.925781 71.980469 " clip-rule="nonzero"/></clipPath><clipPath id="c5d2e74825"><path d="M -20.9375 71.921875 L 347.085938 -0.0898438 L 395.765625 248.695312 L 27.742188 320.707031 Z M -20.9375 71.921875 " clip-rule="nonzero"/></clipPath><clipPath id="f0c9c77bae"><path d="M -20.9375 71.921875 L 347.085938 -0.0898438 L 395.765625 248.695312 L 27.742188 320.707031 Z M -20.9375 71.921875 " clip-rule="nonzero"/></clipPath><clipPath id="307c6b5153"><path d="M 25 137 L 136 137 L 136 288 L 25 288 Z M 25 137 " clip-rule="nonzero"/></clipPath><clipPath id="6dc0516340"><path d="M -20.925781 71.980469 L 347.097656 -0.03125 L 395.632812 248.015625 L 27.609375 320.027344 Z M -20.925781 71.980469 " clip-rule="nonzero"/></clipPath><clipPath id="820e219763"><path d="M -20.9375 71.921875 L 347.085938 -0.0898438 L 395.765625 248.695312 L 27.742188 320.707031 Z M -20.9375 71.921875 " clip-rule="nonzero"/></clipPath><clipPath id="80227e7831"><path d="M -20.9375 71.921875 L 347.085938 -0.0898438 L 395.765625 248.695312 L 27.742188 320.707031 Z M -20.9375 71.921875 " clip-rule="nonzero"/></clipPath><clipPath id="6e938fb2ae"><path d="M 14 238 L 171 238 L 171 304 L 14 304 Z M 14 238 " clip-rule="nonzero"/></clipPath><clipPath id="fed0451df8"><path d="M -20.925781 71.980469 L 347.097656 -0.03125 L 395.632812 248.015625 L 27.609375 320.027344 Z M -20.925781 71.980469 " clip-rule="nonzero"/></clipPath><clipPath id="8e398eaa51"><path d="M -20.9375 71.921875 L 347.085938 -0.0898438 L 395.765625 248.695312 L 27.742188 320.707031 Z M -20.9375 71.921875 " clip-rule="nonzero"/></clipPath><clipPath id="ec742fba77"><path d="M -20.9375 71.921875 L 347.085938 -0.0898438 L 395.765625 248.695312 L 27.742188 320.707031 Z M -20.9375 71.921875 " clip-rule="nonzero"/></clipPath><clipPath id="c4612dd22c"><path d="M 12.199219 240.710938 L 155.984375 212.578125 L 171.753906 293.152344 L 27.964844 321.289062 Z M 12.199219 240.710938 " clip-rule="nonzero"/></clipPath><clipPath id="9c152c6390"><path d="M 12.199219 240.710938 L 155.984375 212.578125 L 171.628906 292.519531 L 27.84375 320.65625 Z M 12.199219 240.710938 " clip-rule="nonzero"/></clipPath><clipPath id="ecf5f8677a"><path d="M 118 88 L 355 88 L 355 176 L 118 176 Z M 118 88 " clip-rule="nonzero"/></clipPath><clipPath id="a419541b3a"><path d="M -20.925781 71.980469 L 347.097656 -0.03125 L 395.632812 248.015625 L 27.609375 320.027344 Z M -20.925781 71.980469 " clip-rule="nonzero"/></clipPath><clipPath id="6b43f2e7e4"><path d="M -20.9375 71.921875 L 347.085938 -0.0898438 L 395.765625 248.695312 L 27.742188 320.707031 Z M -20.9375 71.921875 " clip-rule="nonzero"/></clipPath><clipPath id="58371a05eb"><path d="M -20.9375 71.921875 L 347.085938 -0.0898438 L 395.765625 248.695312 L 27.742188 320.707031 Z M -20.9375 71.921875 " clip-rule="nonzero"/></clipPath></defs><g clip-path="url(#1bb945c644)"><g clip-path="url(#f348fb4408)"><g clip-path="url(#7ea07c0e96)"><g clip-path="url(#c44d35edef)"><path fill="#34b456" d="M 99.070312 204.476562 C 116.65625 128.855469 159.484375 96.753906 232.964844 77.792969 C 271.613281 67.816406 253.953125 29.371094 217.671875 41.066406 C 140.839844 65.835938 106.117188 125.589844 99.070312 204.476562 " fill-opacity="1" fill-rule="evenodd"/></g></g></g></g><g clip-path="url(#64ea258eea)"><g clip-path="url(#ea72d09f6f)"><g clip-path="url(#c5d2e74825)"><g clip-path="url(#f0c9c77bae)"><path fill="#8fd23c" d="M 100.832031 254.9375 C 72.808594 190.703125 86.488281 144.386719 129.359375 90.96875 C 151.917969 62.851562 118.460938 44.597656 98.53125 72.65625 C 56.351562 132.070312 63.421875 194.046875 100.832031 254.9375 " fill-opacity="1" fill-rule="evenodd"/></g></g></g></g><g clip-path="url(#307c6b5153)"><g clip-path="url(#6dc0516340)"><g clip-path="url(#820e219763)"><g clip-path="url(#80227e7831)"><path fill="#c1e475" d="M 135.253906 287.355469 C 78.265625 260.191406 60.195312 220.539062 57.808594 158.726562 C 56.566406 126.234375 23.003906 133.609375 26.03125 164.527344 C 32.421875 230.011719 73.832031 268.035156 135.253906 287.355469 " fill-opacity="1" fill-rule="evenodd"/></g></g></g></g><g clip-path="url(#6e938fb2ae)"><g clip-path="url(#fed0451df8)"><g clip-path="url(#8e398eaa51)"><g clip-path="url(#ec742fba77)"><g clip-path="url(#c4612dd22c)"><g clip-path="url(#9c152c6390)"><path fill="#ddef8f" d="M 170.601562 287.589844 C 115.84375 303.183594 80.035156 287.097656 41.675781 246.617188 C 21.496094 225.320312 3.171875 250.363281 23.605469 269.507812 C 66.867188 310.078125 117.523438 311.144531 170.601562 287.589844 " fill-opacity="1" fill-rule="evenodd"/></g></g></g></g></g></g><g clip-path="url(#ecf5f8677a)"><g clip-path="url(#a419541b3a)"><g clip-path="url(#6b43f2e7e4)"><g clip-path="url(#58371a05eb)"><path fill="#2a7f4a" d="M 118.140625 175.734375 C 180.195312 116.152344 239.359375 112.320312 319.117188 139.238281 C 361.058594 153.382812 367.871094 106.972656 327.078125 95.851562 C 240.714844 72.296875 172.367188 106.738281 118.140625 175.734375 " fill-opacity="1" fill-rule="evenodd"/></g></g></g></g><g fill="#000000" fill-opacity="1"><g transform="translate(108.488993, 226.704199)"><g><path d="M 39.265625 -18.480469 C 38.960938 -20.710938 36.726562 -18.480469 36.035156 -17.863281 C 34.726562 -16.863281 33.339844 -16.015625 32.03125 -15.015625 C 30.257812 -13.78125 28.566406 -12.394531 26.871094 -11.011719 C 26.179688 -10.472656 21.945312 -6.542969 21.558594 -6.777344 C 22.789062 -10.625 24.945312 -14.476562 27.023438 -18.09375 C 28.949219 -21.328125 25.023438 -24.097656 21.867188 -22.714844 C 20.941406 -22.328125 19.941406 -20.632812 19.324219 -19.789062 C 17.863281 -17.707031 16.476562 -15.476562 15.015625 -13.398438 L 12.933594 -10.242188 C 12.703125 -9.933594 11.242188 -7.777344 11.472656 -7.777344 C 11.550781 -7.777344 11.625 -7.851562 11.703125 -7.929688 C 10.164062 -5.851562 7.929688 -3.234375 5.929688 -1.769531 C 3.15625 0.386719 4.773438 -6.082031 5.160156 -7.160156 C 6.3125 -10.625 8.238281 -13.9375 10.316406 -16.9375 C 10.625 -17.402344 14.859375 -22.789062 16.246094 -24.097656 C 14.859375 -22.945312 10.703125 -17.785156 10.007812 -16.9375 C 12.472656 -20.480469 16.398438 -26.101562 21.019531 -26.871094 L 20.019531 -26.484375 C 20.941406 -26.640625 23.023438 -26.5625 23.023438 -26.5625 L 22.789062 -26.792969 C 23.175781 -26.5625 23.40625 -26.253906 23.867188 -26.253906 C 25.792969 -26.332031 25.332031 -29.410156 24.484375 -30.335938 C 23.328125 -31.875 20.558594 -32.492188 18.710938 -32.03125 C 18.171875 -31.875 17.941406 -31.566406 17.324219 -31.492188 C 16.632812 -31.335938 16.09375 -31.492188 15.246094 -31.027344 C 13.707031 -30.257812 12.394531 -29.179688 11.164062 -27.949219 C 10.394531 -27.257812 3.003906 -19.324219 3.542969 -19.019531 C 3.695312 -19.019531 3.851562 -19.171875 3.925781 -19.25 L 2.617188 -17.324219 C 2.539062 -17.402344 2.925781 -17.941406 2.847656 -17.941406 C 2.539062 -18.09375 1 -15.554688 0.925781 -15.320312 C 0.152344 -14.089844 -0.460938 -12.703125 -0.691406 -11.242188 C -1 -9.625 -1.078125 -7.851562 -1.078125 -6.238281 C -1.078125 -5.160156 -1 -4.082031 -0.691406 -3.078125 C -0.617188 -2.925781 0.308594 -1.15625 0.152344 -1.925781 L 0.386719 -1.386719 C 0.308594 -1.386719 0.230469 -1.464844 0.152344 -1.539062 C -0.152344 -1 2.773438 1.617188 3.3125 1.847656 C 4.464844 2.386719 5.542969 2.078125 6.699219 1.386719 C 9.238281 -0.152344 11.011719 -3.078125 12.78125 -5.542969 C 14.707031 -8.160156 16.863281 -10.855469 18.480469 -13.78125 L 16.785156 -7.777344 C 16.09375 -5.542969 15.707031 -2.234375 14.320312 -0.460938 C 12.859375 1.308594 10.703125 2.847656 9.085938 4.390625 C 7.390625 5.929688 5.699219 7.46875 4.15625 9.238281 C 1.925781 11.78125 -0.152344 14.550781 -2.078125 17.324219 C -4.3125 20.558594 -5.851562 24.023438 -4.3125 27.796875 C -2.925781 31.105469 0.230469 34.1875 4.082031 33.261719 C 7.390625 32.414062 8.625 29.644531 10.085938 27.023438 C 14.707031 19.019531 17.015625 9.777344 19.632812 0.925781 C 20.019531 -0.386719 20.25 -1.695312 21.171875 -2.695312 C 22.097656 -3.617188 23.253906 -4.464844 24.332031 -5.3125 C 26.484375 -7.238281 28.71875 -9.007812 31.027344 -10.855469 L 37.265625 -15.628906 C 38.265625 -16.398438 39.574219 -17.015625 39.265625 -18.480469 Z M 12.011719 7.699219 C 12.011719 7.621094 11.625 8.699219 11.703125 8.546875 C 10.085938 13.242188 8.546875 17.941406 6.390625 22.40625 C 5.3125 24.636719 0.230469 33.878906 -1.617188 27.101562 C -2.847656 22.789062 1.308594 17.863281 3.695312 14.707031 C 6.621094 10.933594 9.625 7.546875 13.089844 4.3125 C 12.78125 5.464844 12.394531 6.621094 12.011719 7.699219 Z M 11.703125 13.089844 C 11.242188 14.78125 10.703125 16.476562 10.007812 18.09375 C 9.316406 19.402344 8.390625 20.558594 7.699219 21.789062 C 9.085938 18.785156 10.546875 15.9375 11.703125 12.859375 Z M 7.851562 -15.398438 C 7.390625 -14.550781 6.699219 -13.78125 6.082031 -12.933594 C 6.699219 -14.320312 7.316406 -15.554688 8.46875 -16.785156 C 8.699219 -17.015625 9.085938 -17.402344 9.316406 -17.785156 Z M 7.777344 -13.398438 L 7.082031 -12.394531 C 7.546875 -13.242188 8.085938 -14.089844 8.699219 -14.9375 Z M 7.777344 -13.398438 "/></g></g></g><g fill="#000000" fill-opacity="1"><g transform="translate(142.134609, 226.704199)"><g><path d="M 31.566406 -18.710938 C 31.105469 -20.710938 29.257812 -18.015625 28.875 -17.554688 L 24.636719 -11.855469 L 20.480469 -6.390625 L 18.246094 -3.542969 C 18.015625 -3.234375 16.324219 -1.078125 16.476562 -1.078125 C 16.632812 -1.230469 16.863281 -1.230469 17.09375 -1.464844 C 15.9375 -0.230469 11.703125 3.617188 10.933594 2.695312 C 10.316406 1.925781 12.011719 -1.308594 12.242188 -2.078125 C 13.089844 -4.3125 13.859375 -6.621094 14.78125 -8.777344 C 15.785156 -11.011719 16.9375 -13.242188 17.863281 -15.476562 C 18.785156 -17.863281 17.402344 -18.710938 15.167969 -19.25 C 14.167969 -19.480469 12.933594 -19.480469 11.78125 -19.632812 C 11.78125 -19.558594 11.855469 -19.558594 11.855469 -19.558594 C 12.859375 -19.402344 14.320312 -19.324219 15.554688 -18.941406 C 13.707031 -19.480469 11.394531 -19.25 9.933594 -19.632812 C 8.929688 -19.863281 8.316406 -19.863281 8.46875 -21.019531 C 8.625 -22.558594 10.242188 -24.175781 10.78125 -25.640625 C 10.78125 -25.5625 10.242188 -24.175781 10.316406 -24.175781 C 10.703125 -24.023438 11.316406 -26.179688 11.316406 -26.484375 C 11.242188 -26.871094 10.316406 -28.027344 10.242188 -27.5625 L 10.394531 -27.332031 C 6.699219 -29.875 2.308594 -24.636719 3.078125 -20.867188 C 3.234375 -20.328125 3.542969 -20.019531 3.773438 -19.402344 C 3.925781 -18.941406 3.773438 -18.402344 4.234375 -17.785156 C 5.851562 -15.785156 8.777344 -15.707031 11.085938 -16.167969 C 10.703125 -15.628906 6.621094 -7.007812 6.851562 -6.929688 L 6.3125 -5.003906 C 6.238281 -5.082031 6.542969 -5.699219 6.390625 -5.699219 C 5.851562 -5.773438 4.773438 -1.308594 4.695312 -0.925781 C 4.390625 0.925781 4.464844 2.539062 5.234375 4.234375 C 5.699219 5.3125 6.238281 6.238281 7.238281 6.851562 C 8.160156 7.46875 9.316406 7.777344 10.394531 7.546875 C 10.78125 7.390625 12.242188 6.390625 11.855469 6.46875 L 12.394531 6.238281 C 12.320312 6.3125 12.242188 6.390625 12.242188 6.46875 C 12.472656 6.542969 16.015625 3.695312 16.476562 3.386719 C 18.941406 1.308594 20.941406 -1.230469 22.789062 -3.773438 C 24.636719 -6.390625 26.5625 -9.007812 28.335938 -11.625 C 29.179688 -12.859375 29.949219 -14.089844 30.566406 -15.398438 C 31.027344 -16.324219 31.800781 -17.632812 31.566406 -18.710938 Z M 8.546875 -9.46875 C 9.085938 -10.855469 9.703125 -12.164062 10.394531 -13.472656 C 10.546875 -13.707031 11.625 -16.476562 12.164062 -16.632812 C 11.78125 -16.398438 10.164062 -12.628906 9.777344 -11.933594 L 8.316406 -8.546875 C 7.546875 -6.699219 6.699219 -4.773438 6.160156 -2.773438 C 6.699219 -5.082031 7.621094 -7.316406 8.546875 -9.46875 Z M 6.699219 5.3125 C 7.160156 5.929688 7.777344 6.542969 8.625 6.851562 C 7.929688 6.621094 7.316406 6.238281 6.851562 5.773438 C 6.929688 5.773438 6.929688 5.851562 6.929688 5.929688 C 6.46875 5.3125 5.851562 4.003906 5.773438 3.773438 C 5.542969 2.847656 5.464844 1.769531 5.542969 0.847656 C 5.542969 0.078125 5.621094 -0.539062 5.773438 -1.230469 L 5.773438 -1.15625 C 5.621094 -0.152344 5.542969 0.847656 5.621094 1.925781 L 5.621094 2.308594 C 5.542969 2.234375 5.542969 2.15625 5.542969 2.15625 C 5.542969 2.15625 5.542969 2.234375 5.621094 2.386719 L 5.621094 2.464844 L 5.929688 4.082031 L 5.699219 3.078125 C 5.851562 3.542969 6.238281 4.390625 6.621094 5.234375 L 6.542969 5.160156 C 6.542969 5.234375 6.621094 5.3125 6.699219 5.390625 Z M 8.855469 -20.09375 C 9.238281 -19.789062 9.933594 -19.710938 10.625 -19.632812 C 10.007812 -19.710938 9.46875 -19.863281 9.085938 -20.171875 C 9.085938 -20.171875 8.625 -20.558594 8.546875 -20.710938 C 8.546875 -20.558594 8.699219 -20.171875 8.855469 -20.09375 Z M 16.9375 -14.089844 L 15.320312 -10.703125 L 16.9375 -14.167969 Z M 5.851562 -1.464844 C 5.851562 -1.386719 5.773438 -1.308594 5.773438 -1.230469 L 5.773438 -1.308594 C 5.773438 -1.386719 5.851562 -1.386719 5.851562 -1.464844 Z M 17.015625 -14.320312 L 17.015625 -14.242188 L 16.9375 -14.242188 Z M 17.015625 -14.320312 L 17.015625 -14.242188 L 16.9375 -14.242188 Z M 5.929688 -2.464844 C 5.929688 -2.539062 6.003906 -2.617188 6.003906 -2.773438 C 6.003906 -2.617188 5.929688 -2.539062 5.929688 -2.464844 Z M 6.238281 4.621094 C 6.238281 4.621094 6.3125 4.695312 6.3125 4.773438 C 6.3125 4.695312 6.238281 4.695312 6.238281 4.621094 Z M 8.625 -20.867188 C 8.546875 -20.867188 8.546875 -20.789062 8.546875 -20.789062 Z M 8.625 -20.867188 "/></g></g></g><g fill="#000000" fill-opacity="1"><g transform="translate(168.081007, 226.704199)"><g><path d="M 39.191406 -18.554688 C 39.113281 -20.25 37.726562 -18.785156 37.265625 -18.171875 C 36.265625 -16.707031 35.339844 -15.167969 34.417969 -13.707031 C 32.339844 -10.546875 30.257812 -7.390625 27.871094 -4.390625 C 19.941406 5.390625 25.484375 -12.011719 24.871094 -11.855469 C 24.5625 -11.78125 24.332031 -10.625 24.253906 -10.394531 C 24.871094 -13.167969 26.023438 -16.476562 27.488281 -19.171875 C 28.335938 -20.867188 29.335938 -22.25 27.796875 -24.097656 C 24.945312 -27.5625 21.636719 -24.40625 19.789062 -22.019531 C 19.019531 -24.945312 17.476562 -29.257812 13.707031 -29.257812 C 12.011719 -29.257812 11.011719 -28.410156 9.855469 -27.410156 C 9.164062 -26.949219 8.625 -26.871094 8.007812 -26.332031 C 7.007812 -25.640625 6.3125 -24.5625 5.621094 -23.636719 C 3.003906 -19.789062 1.15625 -14.9375 0.308594 -10.472656 C -0.078125 -8.316406 -0.230469 -5.929688 0.386719 -3.773438 C 0.769531 -2.539062 2.15625 0.230469 3.925781 0 C 4.003906 0 3.851562 -0.078125 3.617188 -0.230469 C 4.695312 0.078125 5.929688 -0.078125 6.851562 -0.691406 C 6.929688 -0.539062 6.003906 -0.152344 6.003906 -0.152344 C 6.851562 1.15625 13.167969 -6.46875 13.628906 -7.160156 C 14.628906 -8.546875 15.320312 -10.007812 16.246094 -11.472656 C 16.9375 -12.550781 18.015625 -13.9375 18.785156 -15.089844 C 18.710938 -14.550781 18.710938 -13.859375 18.710938 -13.859375 C 17.324219 -9.46875 16.015625 -4.695312 17.863281 -0.152344 C 18.710938 2.15625 20.789062 4.3125 23.40625 3.851562 C 25.714844 3.464844 27.640625 1.230469 29.027344 -0.539062 C 30.722656 -2.539062 32.183594 -4.773438 33.648438 -7.082031 C 34.878906 -9.164062 36.035156 -11.242188 37.035156 -13.550781 C 37.652344 -15.015625 39.34375 -16.785156 39.191406 -18.554688 Z M 17.09375 -18.015625 C 16.707031 -17.476562 16.324219 -16.9375 16.015625 -16.398438 L 14.011719 -13.550781 C 12.703125 -11.625 11.316406 -9.777344 9.855469 -8.007812 C 9.46875 -7.46875 7.621094 -5.082031 6.851562 -5.3125 C 5.699219 -5.699219 6.929688 -9.703125 7.082031 -10.316406 C 7.316406 -11.394531 11.394531 -23.253906 12.472656 -23.484375 C 11.085938 -23.558594 6.621094 -9.625 6.390625 -8.46875 C 7.007812 -12.242188 8.390625 -15.9375 9.933594 -19.402344 C 10.78125 -21.171875 12.703125 -25.871094 15.246094 -25.871094 C 16.632812 -25.871094 16.9375 -23.023438 17.167969 -22.097656 C 17.09375 -22.25 16.398438 -24.484375 16.324219 -24.40625 C 15.9375 -24.097656 17.476562 -19.863281 17.476562 -19.25 C 17.476562 -18.632812 17.476562 -18.632812 17.09375 -18.015625 Z M 18.863281 -14.242188 C 18.863281 -14.242188 19.09375 -15.320312 19.171875 -15.554688 L 19.558594 -16.09375 Z M 17.707031 -19.019531 L 17.707031 -19.789062 C 17.941406 -19.480469 17.941406 -19.25 17.707031 -19.019531 Z M 17.707031 -19.019531 "/></g></g></g><g fill="#000000" fill-opacity="1"><g transform="translate(201.649639, 226.704199)"><g><path d="M 43.578125 -19.09375 C 43.117188 -19.019531 39.113281 -17.785156 39.34375 -17.167969 C 39.34375 -17.09375 39.5 -17.015625 39.574219 -17.015625 C 38.265625 -16.476562 36.574219 -16.398438 35.265625 -15.554688 C 33.800781 -14.550781 32.414062 -13.550781 30.875 -12.703125 C 32.261719 -15.089844 33.570312 -17.632812 34.417969 -20.171875 C 34.726562 -21.097656 36.496094 -26.792969 35.339844 -27.410156 C 35.1875 -27.488281 35.109375 -26.792969 35.03125 -26.410156 C 35.109375 -29.488281 34.109375 -34.1875 29.949219 -34.492188 C 27.410156 -34.648438 25.023438 -31.492188 23.636719 -29.796875 C 20.480469 -25.792969 17.707031 -21.480469 14.9375 -17.324219 C 14.167969 -16.167969 6.46875 -3.695312 6.46875 -3.695312 C 6.46875 -3.695312 7.007812 -4.464844 7.699219 -5.464844 C 7.007812 -4.3125 6.3125 -3.078125 5.699219 -1.847656 C 6.003906 -3.003906 8.929688 -12.164062 10.78125 -17.554688 C 10.933594 -17.785156 11.011719 -18.09375 11.085938 -18.324219 L 11.550781 -19.632812 L 11.550781 -19.558594 C 12.242188 -21.636719 12.933594 -23.714844 13.550781 -25.871094 C 13.550781 -25.640625 13.242188 -24.484375 13.320312 -24.484375 C 13.78125 -24.40625 14.398438 -27.640625 14.089844 -27.640625 L 13.859375 -27.257812 C 14.089844 -28.410156 14.476562 -28.949219 13.78125 -30.257812 C 13.242188 -31.414062 12.320312 -32.492188 11.011719 -32.800781 C 8.46875 -33.492188 7.238281 -31.414062 7.390625 -29.410156 C 7.390625 -29.105469 7.777344 -28.949219 7.777344 -28.640625 C 7.777344 -28.257812 7.390625 -27.5625 7.316406 -27.257812 C 6.777344 -25.640625 6.390625 -24.097656 5.773438 -22.558594 C 5.464844 -21.710938 2.617188 -13.707031 2.617188 -13.707031 C 2.773438 -13.78125 2.847656 -13.9375 2.925781 -14.089844 C 2.695312 -13.398438 2.464844 -12.703125 2.15625 -12.011719 C 2.078125 -12.089844 2.386719 -12.628906 2.234375 -12.628906 C 1.464844 -12.78125 -0.460938 -6.3125 -0.617188 -5.699219 C -0.925781 -4.234375 -1.308594 -2.847656 -1.847656 -1.386719 C -2.078125 -0.617188 -2.386719 0.152344 -2.617188 1 C -2.617188 1.078125 -3.003906 2.925781 -2.617188 2.234375 C -2.695312 2.464844 -2.773438 2.617188 -2.773438 2.773438 C -2.773438 2.695312 -2.847656 2.617188 -2.847656 2.539062 C -3.078125 2.617188 -3.234375 4.234375 -3.234375 4.3125 C -3.542969 5.160156 -3.925781 5.773438 -4.3125 6.542969 C -5.3125 9.007812 -5.851562 11.703125 -6.238281 14.320312 C -6.851562 18.324219 -8.699219 24.332031 -6.699219 28.027344 C -6.003906 29.335938 -3.851562 32.03125 -2.15625 30.414062 C -1.386719 29.644531 -1.386719 27.871094 -1.308594 26.949219 C -0.847656 24.40625 -0.460938 21.789062 0.078125 19.25 L 0.769531 15.707031 C 0.847656 15.554688 1.464844 12.703125 1.230469 12.78125 C 1.078125 12.933594 0.925781 13.167969 0.847656 13.398438 C 1.230469 12.164062 1.769531 11.011719 2.234375 9.703125 C 2.847656 7.851562 3.3125 6.082031 4.234375 4.390625 C 5.3125 2.695312 6.238281 0.847656 7.238281 -0.847656 C 8.007812 -2.234375 8.699219 -4.003906 9.546875 -5.160156 C 9.777344 -5.464844 10.242188 -5.621094 10.625 -5.929688 C 11.394531 -6.777344 11.933594 -7.929688 12.550781 -8.855469 C 13.707031 -10.703125 14.707031 -12.550781 15.9375 -14.242188 C 16.476562 -15.015625 22.636719 -23.636719 23.253906 -24.175781 C 23.097656 -24.097656 22.945312 -24.023438 22.789062 -23.867188 C 23.40625 -24.636719 24.097656 -25.332031 24.714844 -25.949219 C 24.792969 -25.871094 24.253906 -25.410156 24.332031 -25.332031 C 24.484375 -25.253906 28.027344 -28.027344 28.640625 -28.101562 C 30.335938 -28.410156 29.71875 -25.175781 29.488281 -24.332031 C 29.105469 -22.558594 28.101562 -20.867188 27.257812 -19.324219 C 26.792969 -18.480469 26.332031 -17.707031 25.949219 -16.863281 C 25.871094 -16.785156 25.253906 -15.320312 25.484375 -15.476562 L 25.023438 -14.78125 C 25.175781 -15.015625 25.253906 -15.320312 25.253906 -15.320312 C 24.945312 -15.320312 24.5625 -14.011719 24.484375 -13.78125 C 24.023438 -13.011719 23.40625 -12.394531 22.789062 -11.78125 C 21.171875 -9.933594 19.710938 -8.007812 18.09375 -6.238281 C 16.863281 -4.925781 15.246094 -2.617188 13.398438 -2.15625 C 12.089844 -1.847656 11.085938 -2.539062 11.78125 -0.460938 C 12.242188 1 13.9375 4.390625 15.785156 4.390625 C 17.476562 4.390625 19.558594 1.847656 20.558594 0.769531 C 21.710938 -0.539062 23.023438 -1.769531 24.253906 -3.15625 C 24.5625 -3.617188 28.101562 -7.851562 28.640625 -8.085938 L 28.566406 -8.085938 C 29.335938 -8.46875 30.105469 -8.160156 31.183594 -8.929688 C 31.800781 -9.394531 32.105469 -9.855469 32.800781 -10.316406 C 33.339844 -10.625 33.570312 -11.011719 33.800781 -11.242188 C 33.800781 -11.242188 33.800781 -11.164062 33.878906 -11.164062 C 34.648438 -11.933594 35.726562 -11.703125 36.726562 -12.394531 C 37.957031 -13.242188 39.5 -14.320312 40.578125 -15.320312 C 41.960938 -16.554688 43.886719 -17.246094 44.503906 -19.324219 C 44.195312 -19.25 43.808594 -19.25 43.578125 -19.09375 Z M 4.15625 -11.242188 L 4.15625 -11.164062 C 4.082031 -10.164062 3.386719 -9.007812 3.003906 -8.085938 C 2.464844 -6.621094 2 -5.160156 1.539062 -3.695312 C 0.539062 -0.617188 -0.617188 2.464844 -1.847656 5.390625 C -2.847656 7.851562 -3.773438 10.546875 -4.464844 13.242188 C -3.617188 9.46875 -2.234375 5.773438 -1.15625 2.234375 C -0.152344 -1 1.386719 -4.15625 2.617188 -7.316406 C 2.773438 -7.699219 4.234375 -10.78125 4.082031 -11.394531 C 4.15625 -11.316406 4.15625 -11.242188 4.15625 -11.242188 Z M 7.546875 -8.929688 C 7.316406 -8.007812 7.082031 -7.160156 6.777344 -6.390625 C 7.007812 -7.160156 7.238281 -8.085938 7.546875 -8.929688 Z M 18.09375 -21.558594 L 16.632812 -19.402344 C 17.09375 -20.09375 17.554688 -20.867188 18.09375 -21.558594 Z M 30.644531 -12.242188 C 30.722656 -12.472656 31.105469 -12.550781 31.335938 -12.703125 Z M 12.242188 -21.25 C 12.164062 -21.171875 12.089844 -20.941406 12.011719 -20.632812 Z M 11.703125 -19.941406 L 12.011719 -20.632812 Z M 15.707031 -18.015625 L 15.707031 -18.09375 C 15.785156 -18.171875 15.785156 -18.171875 15.785156 -18.246094 C 15.859375 -18.324219 15.785156 -18.171875 15.707031 -18.015625 Z M 11.703125 -19.941406 C 11.703125 -19.789062 11.625 -19.710938 11.550781 -19.632812 Z M -4.621094 13.9375 C -4.621094 13.859375 -4.621094 13.859375 -4.542969 13.78125 C -4.542969 13.859375 -4.542969 13.859375 -4.621094 13.9375 Z M 8.007812 -9.855469 C 8.007812 -9.777344 7.929688 -9.777344 7.929688 -9.777344 Z M 8.007812 -9.855469 "/></g></g></g><g fill="#000000" fill-opacity="1"><g transform="translate(240.453748, 226.704199)"><g><path d="M 43.578125 -19.09375 C 43.117188 -19.019531 39.113281 -17.785156 39.34375 -17.167969 C 39.34375 -17.09375 39.5 -17.015625 39.574219 -17.015625 C 38.265625 -16.476562 36.574219 -16.398438 35.265625 -15.554688 C 33.800781 -14.550781 32.414062 -13.550781 30.875 -12.703125 C 32.261719 -15.089844 33.570312 -17.632812 34.417969 -20.171875 C 34.726562 -21.097656 36.496094 -26.792969 35.339844 -27.410156 C 35.1875 -27.488281 35.109375 -26.792969 35.03125 -26.410156 C 35.109375 -29.488281 34.109375 -34.1875 29.949219 -34.492188 C 27.410156 -34.648438 25.023438 -31.492188 23.636719 -29.796875 C 20.480469 -25.792969 17.707031 -21.480469 14.9375 -17.324219 C 14.167969 -16.167969 6.46875 -3.695312 6.46875 -3.695312 C 6.46875 -3.695312 7.007812 -4.464844 7.699219 -5.464844 C 7.007812 -4.3125 6.3125 -3.078125 5.699219 -1.847656 C 6.003906 -3.003906 8.929688 -12.164062 10.78125 -17.554688 C 10.933594 -17.785156 11.011719 -18.09375 11.085938 -18.324219 L 11.550781 -19.632812 L 11.550781 -19.558594 C 12.242188 -21.636719 12.933594 -23.714844 13.550781 -25.871094 C 13.550781 -25.640625 13.242188 -24.484375 13.320312 -24.484375 C 13.78125 -24.40625 14.398438 -27.640625 14.089844 -27.640625 L 13.859375 -27.257812 C 14.089844 -28.410156 14.476562 -28.949219 13.78125 -30.257812 C 13.242188 -31.414062 12.320312 -32.492188 11.011719 -32.800781 C 8.46875 -33.492188 7.238281 -31.414062 7.390625 -29.410156 C 7.390625 -29.105469 7.777344 -28.949219 7.777344 -28.640625 C 7.777344 -28.257812 7.390625 -27.5625 7.316406 -27.257812 C 6.777344 -25.640625 6.390625 -24.097656 5.773438 -22.558594 C 5.464844 -21.710938 2.617188 -13.707031 2.617188 -13.707031 C 2.773438 -13.78125 2.847656 -13.9375 2.925781 -14.089844 C 2.695312 -13.398438 2.464844 -12.703125 2.15625 -12.011719 C 2.078125 -12.089844 2.386719 -12.628906 2.234375 -12.628906 C 1.464844 -12.78125 -0.460938 -6.3125 -0.617188 -5.699219 C -0.925781 -4.234375 -1.308594 -2.847656 -1.847656 -1.386719 C -2.078125 -0.617188 -2.386719 0.152344 -2.617188 1 C -2.617188 1.078125 -3.003906 2.925781 -2.617188 2.234375 C -2.695312 2.464844 -2.773438 2.617188 -2.773438 2.773438 C -2.773438 2.695312 -2.847656 2.617188 -2.847656 2.539062 C -3.078125 2.617188 -3.234375 4.234375 -3.234375 4.3125 C -3.542969 5.160156 -3.925781 5.773438 -4.3125 6.542969 C -5.3125 9.007812 -5.851562 11.703125 -6.238281 14.320312 C -6.851562 18.324219 -8.699219 24.332031 -6.699219 28.027344 C -6.003906 29.335938 -3.851562 32.03125 -2.15625 30.414062 C -1.386719 29.644531 -1.386719 27.871094 -1.308594 26.949219 C -0.847656 24.40625 -0.460938 21.789062 0.078125 19.25 L 0.769531 15.707031 C 0.847656 15.554688 1.464844 12.703125 1.230469 12.78125 C 1.078125 12.933594 0.925781 13.167969 0.847656 13.398438 C 1.230469 12.164062 1.769531 11.011719 2.234375 9.703125 C 2.847656 7.851562 3.3125 6.082031 4.234375 4.390625 C 5.3125 2.695312 6.238281 0.847656 7.238281 -0.847656 C 8.007812 -2.234375 8.699219 -4.003906 9.546875 -5.160156 C 9.777344 -5.464844 10.242188 -5.621094 10.625 -5.929688 C 11.394531 -6.777344 11.933594 -7.929688 12.550781 -8.855469 C 13.707031 -10.703125 14.707031 -12.550781 15.9375 -14.242188 C 16.476562 -15.015625 22.636719 -23.636719 23.253906 -24.175781 C 23.097656 -24.097656 22.945312 -24.023438 22.789062 -23.867188 C 23.40625 -24.636719 24.097656 -25.332031 24.714844 -25.949219 C 24.792969 -25.871094 24.253906 -25.410156 24.332031 -25.332031 C 24.484375 -25.253906 28.027344 -28.027344 28.640625 -28.101562 C 30.335938 -28.410156 29.71875 -25.175781 29.488281 -24.332031 C 29.105469 -22.558594 28.101562 -20.867188 27.257812 -19.324219 C 26.792969 -18.480469 26.332031 -17.707031 25.949219 -16.863281 C 25.871094 -16.785156 25.253906 -15.320312 25.484375 -15.476562 L 25.023438 -14.78125 C 25.175781 -15.015625 25.253906 -15.320312 25.253906 -15.320312 C 24.945312 -15.320312 24.5625 -14.011719 24.484375 -13.78125 C 24.023438 -13.011719 23.40625 -12.394531 22.789062 -11.78125 C 21.171875 -9.933594 19.710938 -8.007812 18.09375 -6.238281 C 16.863281 -4.925781 15.246094 -2.617188 13.398438 -2.15625 C 12.089844 -1.847656 11.085938 -2.539062 11.78125 -0.460938 C 12.242188 1 13.9375 4.390625 15.785156 4.390625 C 17.476562 4.390625 19.558594 1.847656 20.558594 0.769531 C 21.710938 -0.539062 23.023438 -1.769531 24.253906 -3.15625 C 24.5625 -3.617188 28.101562 -7.851562 28.640625 -8.085938 L 28.566406 -8.085938 C 29.335938 -8.46875 30.105469 -8.160156 31.183594 -8.929688 C 31.800781 -9.394531 32.105469 -9.855469 32.800781 -10.316406 C 33.339844 -10.625 33.570312 -11.011719 33.800781 -11.242188 C 33.800781 -11.242188 33.800781 -11.164062 33.878906 -11.164062 C 34.648438 -11.933594 35.726562 -11.703125 36.726562 -12.394531 C 37.957031 -13.242188 39.5 -14.320312 40.578125 -15.320312 C 41.960938 -16.554688 43.886719 -17.246094 44.503906 -19.324219 C 44.195312 -19.25 43.808594 -19.25 43.578125 -19.09375 Z M 4.15625 -11.242188 L 4.15625 -11.164062 C 4.082031 -10.164062 3.386719 -9.007812 3.003906 -8.085938 C 2.464844 -6.621094 2 -5.160156 1.539062 -3.695312 C 0.539062 -0.617188 -0.617188 2.464844 -1.847656 5.390625 C -2.847656 7.851562 -3.773438 10.546875 -4.464844 13.242188 C -3.617188 9.46875 -2.234375 5.773438 -1.15625 2.234375 C -0.152344 -1 1.386719 -4.15625 2.617188 -7.316406 C 2.773438 -7.699219 4.234375 -10.78125 4.082031 -11.394531 C 4.15625 -11.316406 4.15625 -11.242188 4.15625 -11.242188 Z M 7.546875 -8.929688 C 7.316406 -8.007812 7.082031 -7.160156 6.777344 -6.390625 C 7.007812 -7.160156 7.238281 -8.085938 7.546875 -8.929688 Z M 18.09375 -21.558594 L 16.632812 -19.402344 C 17.09375 -20.09375 17.554688 -20.867188 18.09375 -21.558594 Z M 30.644531 -12.242188 C 30.722656 -12.472656 31.105469 -12.550781 31.335938 -12.703125 Z M 12.242188 -21.25 C 12.164062 -21.171875 12.089844 -20.941406 12.011719 -20.632812 Z M 11.703125 -19.941406 L 12.011719 -20.632812 Z M 15.707031 -18.015625 L 15.707031 -18.09375 C 15.785156 -18.171875 15.785156 -18.171875 15.785156 -18.246094 C 15.859375 -18.324219 15.785156 -18.171875 15.707031 -18.015625 Z M 11.703125 -19.941406 C 11.703125 -19.789062 11.625 -19.710938 11.550781 -19.632812 Z M -4.621094 13.9375 C -4.621094 13.859375 -4.621094 13.859375 -4.542969 13.78125 C -4.542969 13.859375 -4.542969 13.859375 -4.621094 13.9375 Z M 8.007812 -9.855469 C 8.007812 -9.777344 7.929688 -9.777344 7.929688 -9.777344 Z M 8.007812 -9.855469 "/></g></g></g><g fill="#000000" fill-opacity="1"><g transform="translate(279.257857, 226.704199)"><g><path d="M 30.796875 -19.632812 C 29.71875 -18.480469 29.027344 -16.554688 28.179688 -15.167969 C 26.871094 -12.933594 25.5625 -10.78125 24.175781 -8.625 C 21.558594 -4.464844 18.941406 -0.230469 15.785156 3.542969 C 14.476562 5.160156 11.703125 9.085938 9.085938 8.777344 C 7.160156 8.46875 7.160156 5.160156 7.160156 3.695312 C 7.160156 2.464844 7.238281 1.230469 7.390625 0.078125 C 7.46875 -0.617188 8.085938 -2.925781 7.699219 -3.542969 L 7.082031 -1.230469 C 7.160156 -2.15625 7.316406 -3.15625 7.546875 -4.082031 C 7.46875 -4.234375 8.160156 -6.390625 8.316406 -7.082031 C 8.699219 -8.625 9.085938 -10.164062 9.546875 -11.703125 C 9.933594 -13.242188 10.316406 -14.707031 10.78125 -16.167969 C 11.164062 -17.554688 11.703125 -18.246094 12.550781 -19.324219 C 16.015625 -23.636719 19.171875 -28.335938 22.097656 -33.03125 C 23.175781 -34.800781 23.867188 -36.339844 25.175781 -37.804688 C 27.101562 -39.804688 28.410156 -42.808594 29.644531 -45.273438 C 31.722656 -49.277344 34.492188 -54.820312 34.03125 -59.515625 L 34.03125 -59.902344 L 33.953125 -59.980469 C 33.492188 -62.980469 30.722656 -66.523438 27.332031 -65.445312 C 25.5625 -64.90625 24.253906 -63.058594 23.175781 -61.75 L 21.40625 -59.363281 C 21.019531 -58.902344 20.480469 -57.746094 20.09375 -57.128906 L 20.171875 -57.207031 L 17.707031 -52.972656 L 18.324219 -54.28125 C 17.941406 -54.359375 16.246094 -51.046875 16.015625 -50.664062 C 15.167969 -49.199219 14.398438 -47.738281 13.707031 -46.273438 C 12.164062 -43.195312 10.625 -40.039062 9.625 -36.726562 C 8.546875 -33.414062 7.316406 -30.183594 6.160156 -26.871094 C 5.542969 -25.101562 4.925781 -23.253906 4.390625 -21.480469 C 3.925781 -20.019531 2.847656 -17.632812 3.078125 -16.09375 L 3.3125 -16.09375 C 3.078125 -15.554688 2.925781 -15.015625 2.773438 -14.476562 C 2.847656 -14.9375 2.847656 -15.476562 2.925781 -15.628906 C 2.539062 -15.089844 2.617188 -13.242188 2.539062 -13.089844 C 1.539062 -8.929688 0.386719 -4.773438 0.078125 -0.460938 C -0.152344 3.617188 -0.152344 9.007812 3.078125 12.011719 C 6.699219 15.320312 10.855469 13.089844 13.859375 10.242188 C 17.402344 6.777344 20.402344 2.695312 23.175781 -1.308594 C 25.714844 -5.003906 27.71875 -8.929688 30.027344 -12.628906 C 30.953125 -14.167969 31.953125 -15.707031 32.414062 -17.402344 C 32.722656 -18.632812 32.570312 -21.480469 30.796875 -19.632812 Z M 21.171875 -47.199219 C 22.714844 -50.894531 24.253906 -54.667969 26.410156 -58.132812 C 26.949219 -58.976562 30.414062 -63.597656 30.257812 -59.515625 L 30.257812 -59.441406 C 30.105469 -55.128906 27.332031 -50.585938 25.484375 -46.890625 L 22.25 -40.882812 C 21.171875 -39.035156 19.324219 -36.726562 18.710938 -34.726562 C 19.171875 -35.957031 20.558594 -37.726562 21.25 -38.882812 C 22.40625 -40.808594 23.40625 -42.730469 24.484375 -44.65625 C 26.253906 -48.042969 28.179688 -51.585938 29.488281 -55.28125 C 26.023438 -44.964844 19.558594 -35.339844 13.859375 -26.179688 C 16.09375 -32.953125 18.324219 -40.34375 21.171875 -47.199219 Z M 18.710938 -52.585938 C 19.480469 -54.050781 20.867188 -55.28125 21.636719 -56.667969 C 20.019531 -53.433594 18.015625 -50.507812 16.324219 -47.429688 C 16.324219 -47.507812 16.324219 -47.660156 16.398438 -47.738281 C 17.09375 -49.429688 17.863281 -50.96875 18.710938 -52.585938 Z M 4.15625 -12.78125 C 4.082031 -12.628906 4.082031 -12.550781 4.082031 -12.550781 C 3.15625 -10.394531 3.078125 -7.46875 2.617188 -5.160156 C 2.539062 -4.621094 2.386719 -4.15625 2.386719 -3.617188 L 2.386719 -3.851562 L 2.15625 -1.386719 C 2.308594 -4.15625 2.617188 -7.007812 3.15625 -9.703125 L 3.15625 -9.625 C 3.386719 -11.394531 3.773438 -13.011719 4.082031 -13.011719 C 4.234375 -13.089844 4.234375 -12.859375 4.15625 -12.78125 Z M 4.15625 -12.78125 "/></g></g></g><g fill="#000000" fill-opacity="1"><g transform="translate(306.513104, 226.704199)"><g><path d="M 29.488281 -19.019531 C 29.488281 -18.941406 29.488281 -18.941406 29.410156 -19.019531 L 29.410156 -19.09375 C 28.179688 -21.171875 26.5625 -18.324219 25.871094 -17.324219 C 24.5625 -15.554688 23.328125 -13.859375 21.945312 -12.242188 C 20.789062 -10.855469 19.558594 -9.46875 18.632812 -8.007812 C 18.632812 -7.851562 18.480469 -7.46875 18.480469 -7.46875 C 18.171875 -7.007812 17.707031 -6.621094 17.324219 -6.160156 C 16.632812 -5.464844 15.9375 -4.695312 15.167969 -4.003906 C 14.011719 -2.925781 7.546875 3.15625 6.699219 -0.769531 C 6.238281 -2.695312 6.851562 -5.082031 7.238281 -6.929688 C 7.46875 -7.929688 7.699219 -8.855469 7.851562 -9.855469 C 8.007812 -10.625 7.777344 -11.394531 8.160156 -12.164062 C 8.390625 -12.628906 8.46875 -12.550781 9.007812 -12.703125 L 10.316406 -13.167969 C 11.164062 -13.472656 12.011719 -13.78125 12.78125 -14.242188 C 13.9375 -14.9375 15.015625 -15.785156 16.015625 -16.632812 C 18.402344 -18.632812 20.941406 -21.019531 21.945312 -24.023438 C 22.484375 -25.714844 22.558594 -27.5625 21.480469 -29.027344 C 20.480469 -30.335938 18.785156 -31.027344 17.246094 -31.335938 C 13.089844 -32.105469 9.933594 -29.71875 7.546875 -26.5625 C 4.621094 -22.945312 2.539062 -18.480469 1.539062 -13.9375 C 1 -11.703125 0.691406 -9.46875 0.308594 -7.160156 C -0.078125 -4.851562 -0.308594 -2.695312 0.925781 -0.539062 C 0.847656 -1.308594 0.691406 -2 0.691406 -2.695312 C 0.691406 -3.078125 0.847656 -3.464844 0.847656 -3.773438 C 0.847656 -3.925781 0.691406 -4.390625 0.691406 -4.621094 C 0.691406 -5.3125 0.847656 -5.851562 1 -6.542969 C 1.078125 -7.238281 1 -7.929688 1.078125 -8.625 C 1.15625 -9.394531 1.464844 -10.007812 1.769531 -10.703125 C 2 -11.316406 2.078125 -11.855469 2.308594 -12.472656 C 2.539062 -13.011719 2.695312 -13.628906 2.925781 -14.242188 C 3.003906 -14.628906 3.386719 -15.089844 3.617188 -15.554688 C 3.386719 -14.859375 2.925781 -14.242188 2.773438 -13.628906 C 2.539062 -12.703125 2.695312 -11.703125 2.617188 -10.78125 C 2.464844 -9.777344 2.15625 -8.777344 2 -7.699219 C 1.847656 -6.699219 1.386719 -5.773438 1.230469 -4.773438 C 1.078125 -3.851562 0.769531 -3.15625 0.847656 -2.234375 C 0.847656 -1.695312 0.925781 -1.15625 1 -0.691406 C 1.078125 -0.078125 1.464844 0.308594 1.847656 0.769531 C 3.15625 2.308594 4.925781 3.542969 6.929688 4.082031 C 8.316406 4.464844 9.546875 4.390625 10.855469 3.695312 C 12.703125 2.695312 14.320312 1.15625 15.707031 -0.308594 C 17.015625 -1.769531 18.015625 -3.386719 19.171875 -4.925781 C 20.25 -6.3125 21.558594 -7.621094 22.636719 -9.007812 L 26.792969 -14.398438 L 29.179688 -17.554688 C 29.566406 -18.015625 29.796875 -18.402344 29.488281 -19.019531 Z M 10.394531 -18.171875 C 10.472656 -18.324219 10.472656 -18.402344 10.472656 -18.402344 C 11.625 -20.867188 12.472656 -23.484375 14.089844 -25.871094 L 15.476562 -27.71875 C 15.785156 -28.101562 16.324219 -28.796875 16.863281 -28.949219 C 18.015625 -29.179688 18.324219 -27.179688 18.246094 -26.410156 L 17.941406 -24.792969 C 17.863281 -24.332031 18.015625 -24.023438 17.941406 -23.636719 C 17.785156 -23.175781 17.402344 -22.945312 17.167969 -22.558594 L 15.859375 -20.867188 C 14.089844 -18.785156 11.855469 -17.015625 9.394531 -15.707031 C 9.777344 -16.554688 10.007812 -17.402344 10.394531 -18.171875 Z M 10.394531 -18.171875 "/></g></g></g></svg>