<svg xmlns="http://www.w3.org/2000/svg" xmlns:xlink="http://www.w3.org/1999/xlink" width="500" zoomAndPan="magnify" viewBox="0 0 375 374.999991" height="500" preserveAspectRatio="xMidYMid meet" version="1.0"><defs><g/><clipPath id="26f94c8f99"><path d="M 120 126 L 202 126 L 202 213 L 120 213 Z M 120 126 " clip-rule="nonzero"/></clipPath><clipPath id="da35131f50"><path d="M 57.726562 143.371094 L 249.832031 105.777344 L 275.179688 235.320312 L 83.074219 272.914062 Z M 57.726562 143.371094 " clip-rule="nonzero"/></clipPath><clipPath id="d918ceb6c1"><path d="M 57.71875 143.339844 L 249.828125 105.75 L 275.175781 235.292969 L 83.066406 272.882812 Z M 57.71875 143.339844 " clip-rule="nonzero"/></clipPath><clipPath id="e30d9abff4"><path d="M 57.71875 143.339844 L 249.828125 105.75 L 275.175781 235.292969 L 83.066406 272.882812 Z M 57.71875 143.339844 " clip-rule="nonzero"/></clipPath><clipPath id="8a066c1436"><path d="M 105 136 L 141 136 L 141 239 L 105 239 Z M 105 136 " clip-rule="nonzero"/></clipPath><clipPath id="48687ff65c"><path d="M 57.726562 143.371094 L 249.832031 105.777344 L 275.179688 235.320312 L 83.074219 272.914062 Z M 57.726562 143.371094 " clip-rule="nonzero"/></clipPath><clipPath id="a2dbcf5c01"><path d="M 57.71875 143.339844 L 249.828125 105.75 L 275.175781 235.292969 L 83.066406 272.882812 Z M 57.71875 143.339844 " clip-rule="nonzero"/></clipPath><clipPath id="e212e8dac4"><path d="M 57.71875 143.339844 L 249.828125 105.75 L 275.175781 235.292969 L 83.066406 272.882812 Z M 57.71875 143.339844 " clip-rule="nonzero"/></clipPath><clipPath id="23515ce7fc"><path d="M 82 177 L 140 177 L 140 256 L 82 256 Z M 82 177 " clip-rule="nonzero"/></clipPath><clipPath id="e2f2dafe42"><path d="M 57.726562 143.371094 L 249.832031 105.777344 L 275.179688 235.320312 L 83.074219 272.914062 Z M 57.726562 143.371094 " clip-rule="nonzero"/></clipPath><clipPath id="43439e4c71"><path d="M 57.71875 143.339844 L 249.828125 105.75 L 275.175781 235.292969 L 83.066406 272.882812 Z M 57.71875 143.339844 " clip-rule="nonzero"/></clipPath><clipPath id="26a5b5cae8"><path d="M 57.71875 143.339844 L 249.828125 105.75 L 275.175781 235.292969 L 83.066406 272.882812 Z M 57.71875 143.339844 " clip-rule="nonzero"/></clipPath><clipPath id="5f7e8ae2bf"><path d="M 76 230 L 158 230 L 158 264 L 76 264 Z M 76 230 " clip-rule="nonzero"/></clipPath><clipPath id="cc89626707"><path d="M 57.726562 143.371094 L 249.832031 105.777344 L 275.179688 235.320312 L 83.074219 272.914062 Z M 57.726562 143.371094 " clip-rule="nonzero"/></clipPath><clipPath id="6bb3d6dd77"><path d="M 57.71875 143.339844 L 249.828125 105.75 L 275.175781 235.292969 L 83.066406 272.882812 Z M 57.71875 143.339844 " clip-rule="nonzero"/></clipPath><clipPath id="5a2b458c81"><path d="M 57.71875 143.339844 L 249.828125 105.75 L 275.175781 235.292969 L 83.066406 272.882812 Z M 57.71875 143.339844 " clip-rule="nonzero"/></clipPath><clipPath id="349e634f8a"><path d="M 74.972656 231.230469 L 150.03125 216.542969 L 158.242188 258.5 L 83.183594 273.1875 Z M 74.972656 231.230469 " clip-rule="nonzero"/></clipPath><clipPath id="99b7877807"><path d="M 74.972656 231.230469 L 150.03125 216.542969 L 158.175781 258.167969 L 83.121094 272.855469 Z M 74.972656 231.230469 " clip-rule="nonzero"/></clipPath><clipPath id="4bac485343"><path d="M 130 151 L 254 151 L 254 198 L 130 198 Z M 130 151 " clip-rule="nonzero"/></clipPath><clipPath id="6cbc019b79"><path d="M 57.726562 143.371094 L 249.832031 105.777344 L 275.179688 235.320312 L 83.074219 272.914062 Z M 57.726562 143.371094 " clip-rule="nonzero"/></clipPath><clipPath id="12b23c57cb"><path d="M 57.71875 143.339844 L 249.828125 105.75 L 275.175781 235.292969 L 83.066406 272.882812 Z M 57.71875 143.339844 " clip-rule="nonzero"/></clipPath><clipPath id="8793cb260a"><path d="M 57.71875 143.339844 L 249.828125 105.75 L 275.175781 235.292969 L 83.066406 272.882812 Z M 57.71875 143.339844 " clip-rule="nonzero"/></clipPath></defs><g clip-path="url(#26f94c8f99)"><g clip-path="url(#da35131f50)"><g clip-path="url(#d918ceb6c1)"><g clip-path="url(#e30d9abff4)"><path fill="#34b456" d="M 120.324219 212.339844 C 129.523438 172.953125 151.882812 156.226562 190.242188 146.332031 C 210.417969 141.128906 201.210938 121.113281 182.269531 127.210938 C 142.160156 140.128906 124.019531 171.253906 120.324219 212.339844 " fill-opacity="1" fill-rule="evenodd"/></g></g></g></g><g clip-path="url(#8a066c1436)"><g clip-path="url(#48687ff65c)"><g clip-path="url(#a2dbcf5c01)"><g clip-path="url(#e212e8dac4)"><path fill="#8fd23c" d="M 121.230469 238.617188 C 106.621094 205.171875 113.773438 181.046875 136.164062 153.21875 C 147.945312 138.570312 130.484375 129.074219 120.074219 143.691406 C 98.042969 174.640625 101.71875 206.914062 121.230469 238.617188 " fill-opacity="1" fill-rule="evenodd"/></g></g></g></g><g clip-path="url(#23515ce7fc)"><g clip-path="url(#e2f2dafe42)"><g clip-path="url(#43439e4c71)"><g clip-path="url(#26a5b5cae8)"><path fill="#c1e475" d="M 139.191406 255.488281 C 109.453125 241.355469 100.03125 220.710938 98.800781 188.523438 C 98.160156 171.601562 80.636719 175.449219 82.210938 191.550781 C 85.53125 225.652344 107.136719 245.441406 139.191406 255.488281 " fill-opacity="1" fill-rule="evenodd"/></g></g></g></g><g clip-path="url(#5f7e8ae2bf)"><g clip-path="url(#cc89626707)"><g clip-path="url(#6bb3d6dd77)"><g clip-path="url(#5a2b458c81)"><g clip-path="url(#349e634f8a)"><g clip-path="url(#99b7877807)"><path fill="#ddef8f" d="M 157.640625 255.601562 C 129.054688 263.734375 110.367188 255.367188 90.359375 234.296875 C 79.828125 223.210938 70.257812 236.257812 80.917969 246.222656 C 103.492188 267.339844 129.929688 267.878906 157.640625 255.601562 " fill-opacity="1" fill-rule="evenodd"/></g></g></g></g></g></g><g clip-path="url(#4bac485343)"><g clip-path="url(#6cbc019b79)"><g clip-path="url(#12b23c57cb)"><g clip-path="url(#8793cb260a)"><path fill="#2a7f4a" d="M 130.285156 197.363281 C 162.691406 166.320312 193.574219 164.3125 235.195312 178.3125 C 257.082031 185.664062 260.652344 161.496094 239.359375 155.714844 C 194.289062 143.46875 158.605469 161.421875 130.285156 197.363281 " fill-opacity="1" fill-rule="evenodd"/></g></g></g></g><g fill="#2a7f4a" fill-opacity="1"><g transform="translate(143.759117, 253.107523)"><g><path d="M 1.0625 -7.53125 L 3.4375 -7.5625 C 4.207031 -7.5625 4.8125 -7.363281 5.25 -6.96875 C 5.695312 -6.570312 5.921875 -6.015625 5.921875 -5.296875 C 5.921875 -4.804688 5.789062 -4.382812 5.53125 -4.03125 C 5.269531 -3.675781 4.929688 -3.429688 4.515625 -3.296875 C 4.859375 -3.171875 5.117188 -2.859375 5.296875 -2.359375 L 5.78125 -1.078125 C 5.925781 -0.691406 6.09375 -0.425781 6.28125 -0.28125 C 6.113281 -0.0390625 5.847656 0.078125 5.484375 0.078125 C 5.285156 0.078125 5.128906 0.0234375 5.015625 -0.078125 C 4.910156 -0.191406 4.8125 -0.378906 4.71875 -0.640625 L 4.171875 -2.125 C 4.054688 -2.414062 3.921875 -2.640625 3.765625 -2.796875 C 3.609375 -2.953125 3.375 -3.03125 3.0625 -3.03125 L 2.15625 -3.03125 L 2.15625 0 C 2 0.03125 1.800781 0.046875 1.5625 0.046875 C 1.332031 0.046875 1.144531 0.03125 1 0 L 1 -7.453125 Z M 2.15625 -6.640625 L 2.15625 -3.953125 C 2.726562 -3.972656 3.132812 -3.984375 3.375 -3.984375 C 3.863281 -3.984375 4.207031 -4.109375 4.40625 -4.359375 C 4.613281 -4.609375 4.71875 -4.921875 4.71875 -5.296875 C 4.71875 -6.191406 4.269531 -6.640625 3.375 -6.640625 C 2.8125 -6.640625 2.40625 -6.640625 2.15625 -6.640625 Z M 2.15625 -6.640625 "/></g></g></g><g fill="#2a7f4a" fill-opacity="1"><g transform="translate(155.09546, 253.107523)"><g><path d="M 2.140625 -1.515625 L 2.140625 -0.953125 C 2.359375 -0.972656 2.597656 -0.984375 2.859375 -0.984375 L 5.703125 -0.984375 C 5.703125 -0.785156 5.691406 -0.632812 5.671875 -0.53125 C 5.609375 -0.164062 5.359375 0.015625 4.921875 0.015625 L 1.65625 0.015625 C 1.457031 0.015625 1.296875 -0.046875 1.171875 -0.171875 C 1.046875 -0.304688 0.984375 -0.488281 0.984375 -0.71875 L 0.984375 -7.453125 L 1.0625 -7.515625 L 5.484375 -7.515625 C 5.503906 -7.398438 5.515625 -7.242188 5.515625 -7.046875 C 5.515625 -6.847656 5.488281 -6.671875 5.4375 -6.515625 L 2.140625 -6.515625 L 2.140625 -4.265625 L 2.828125 -4.28125 L 4.890625 -4.28125 C 4.929688 -4.144531 4.953125 -3.976562 4.953125 -3.78125 C 4.953125 -3.59375 4.929688 -3.4375 4.890625 -3.3125 L 2.828125 -3.3125 C 2.535156 -3.3125 2.304688 -3.316406 2.140625 -3.328125 Z M 2.140625 -1.515625 "/></g></g></g><g fill="#2a7f4a" fill-opacity="1"><g transform="translate(166.058074, 253.107523)"><g><path d="M 3.9375 -6.515625 L 3.296875 -6.53125 L 3.296875 0 C 3.128906 0.03125 2.929688 0.046875 2.703125 0.046875 C 2.484375 0.046875 2.289062 0.03125 2.125 0 L 2.125 -5.71875 L 2.140625 -6.53125 L 2.125 -6.53125 L 1.5 -6.515625 L 0.1875 -6.515625 C 0.15625 -6.671875 0.140625 -6.835938 0.140625 -7.015625 C 0.140625 -7.191406 0.15625 -7.359375 0.1875 -7.515625 L 5.25 -7.515625 C 5.289062 -7.335938 5.3125 -7.164062 5.3125 -7 C 5.3125 -6.675781 5.09375 -6.515625 4.65625 -6.515625 Z M 3.9375 -6.515625 "/></g></g></g><g fill="#2a7f4a" fill-opacity="1"><g transform="translate(176.207263, 253.107523)"><g><path d="M 4.71875 -1.828125 L 4.0625 -1.8125 L 2.546875 -1.8125 L 1.90625 -1.828125 L 1.328125 0.015625 C 1.203125 0.046875 1.035156 0.0625 0.828125 0.0625 C 0.628906 0.0625 0.4375 0.0351562 0.25 -0.015625 L 0.21875 -0.078125 L 2.703125 -7.515625 C 2.859375 -7.546875 3.082031 -7.5625 3.375 -7.5625 C 3.664062 -7.5625 3.882812 -7.546875 4.03125 -7.515625 L 6.5 -0.078125 C 6.34375 0.0234375 6.144531 0.078125 5.90625 0.078125 C 5.664062 0.078125 5.492188 0.0351562 5.390625 -0.046875 C 5.285156 -0.140625 5.195312 -0.300781 5.125 -0.53125 Z M 2.21875 -2.765625 L 2.765625 -2.78125 L 3.875 -2.78125 C 4.175781 -2.769531 4.359375 -2.765625 4.421875 -2.765625 L 3.921875 -4.359375 C 3.660156 -5.179688 3.460938 -5.847656 3.328125 -6.359375 L 3.28125 -6.359375 C 3.1875 -5.953125 3.039062 -5.421875 2.84375 -4.765625 Z M 2.21875 -2.765625 "/></g></g></g><g fill="#2a7f4a" fill-opacity="1"><g transform="translate(187.664527, 253.107523)"><g><path d="M 1.03125 0 L 1.03125 -7.515625 C 1.175781 -7.546875 1.367188 -7.5625 1.609375 -7.5625 C 1.847656 -7.5625 2.046875 -7.546875 2.203125 -7.515625 L 2.203125 0 C 2.046875 0.03125 1.847656 0.046875 1.609375 0.046875 C 1.367188 0.046875 1.175781 0.03125 1.03125 0 Z M 1.03125 0 "/></g></g></g><g fill="#2a7f4a" fill-opacity="1"><g transform="translate(195.637259, 253.107523)"><g><path d="M 3.140625 -1.015625 L 5.328125 -1.015625 C 5.328125 -0.847656 5.316406 -0.691406 5.296875 -0.546875 C 5.234375 -0.171875 4.984375 0.015625 4.546875 0.015625 L 1.671875 0.015625 C 1.460938 0.015625 1.296875 -0.046875 1.171875 -0.171875 C 1.046875 -0.304688 0.984375 -0.488281 0.984375 -0.71875 L 0.984375 -7.484375 L 1.0625 -7.5625 L 1.5 -7.5625 C 1.75 -7.5625 1.921875 -7.5 2.015625 -7.375 C 2.117188 -7.257812 2.171875 -7.070312 2.171875 -6.8125 L 2.171875 -0.96875 C 2.472656 -1 2.796875 -1.015625 3.140625 -1.015625 Z M 3.140625 -1.015625 "/></g></g></g><g fill="#2a7f4a" fill-opacity="1"><g transform="translate(206.006292, 253.107523)"><g/></g></g><g fill="#2a7f4a" fill-opacity="1"><g transform="translate(213.165589, 253.107523)"><g><path d="M 0.328125 -0.6875 C 0.359375 -1.039062 0.523438 -1.335938 0.828125 -1.578125 C 1.585938 -1.085938 2.320312 -0.84375 3.03125 -0.84375 C 3.46875 -0.84375 3.8125 -0.9375 4.0625 -1.125 C 4.3125 -1.3125 4.4375 -1.5625 4.4375 -1.875 C 4.4375 -2.375 4.101562 -2.769531 3.4375 -3.0625 L 2.140625 -3.625 C 1.140625 -4.050781 0.640625 -4.679688 0.640625 -5.515625 C 0.640625 -5.816406 0.703125 -6.097656 0.828125 -6.359375 C 0.953125 -6.617188 1.125 -6.847656 1.34375 -7.046875 C 1.5625 -7.242188 1.828125 -7.394531 2.140625 -7.5 C 2.453125 -7.601562 2.796875 -7.65625 3.171875 -7.65625 C 3.941406 -7.65625 4.703125 -7.460938 5.453125 -7.078125 C 5.441406 -6.734375 5.300781 -6.429688 5.03125 -6.171875 C 4.320312 -6.515625 3.691406 -6.6875 3.140625 -6.6875 C 2.742188 -6.6875 2.425781 -6.585938 2.1875 -6.390625 C 1.945312 -6.203125 1.828125 -5.972656 1.828125 -5.703125 C 1.828125 -5.429688 1.898438 -5.21875 2.046875 -5.0625 C 2.203125 -4.914062 2.429688 -4.78125 2.734375 -4.65625 L 4.015625 -4.109375 C 4.566406 -3.878906 4.976562 -3.597656 5.25 -3.265625 C 5.53125 -2.929688 5.671875 -2.53125 5.671875 -2.0625 C 5.671875 -1.40625 5.441406 -0.875 4.984375 -0.46875 C 4.523438 -0.0625 3.828125 0.140625 2.890625 0.140625 C 1.960938 0.140625 1.109375 -0.132812 0.328125 -0.6875 Z M 0.328125 -0.6875 "/></g></g></g><g fill="#2a7f4a" fill-opacity="1"><g transform="translate(224.018284, 253.107523)"><g><path d="M 2.109375 -5.734375 C 1.984375 -5.421875 1.894531 -5.109375 1.84375 -4.796875 C 1.789062 -4.484375 1.765625 -4.15625 1.765625 -3.8125 C 1.765625 -3.4375 1.789062 -3.066406 1.84375 -2.703125 C 1.894531 -2.347656 1.988281 -2.023438 2.125 -1.734375 C 2.269531 -1.453125 2.460938 -1.222656 2.703125 -1.046875 C 2.941406 -0.878906 3.25 -0.796875 3.625 -0.796875 C 4.03125 -0.796875 4.351562 -0.894531 4.59375 -1.09375 C 4.832031 -1.289062 5.015625 -1.539062 5.140625 -1.84375 C 5.265625 -2.144531 5.347656 -2.46875 5.390625 -2.8125 C 5.429688 -3.15625 5.453125 -3.472656 5.453125 -3.765625 C 5.453125 -4.054688 5.429688 -4.375 5.390625 -4.71875 C 5.347656 -5.0625 5.265625 -5.378906 5.140625 -5.671875 C 5.023438 -5.972656 4.84375 -6.222656 4.59375 -6.421875 C 4.34375 -6.617188 4.019531 -6.71875 3.625 -6.71875 C 3.25 -6.71875 2.929688 -6.628906 2.671875 -6.453125 C 2.421875 -6.273438 2.234375 -6.035156 2.109375 -5.734375 Z M 1.71875 -0.515625 C 0.925781 -1.191406 0.53125 -2.269531 0.53125 -3.75 C 0.53125 -4.351562 0.597656 -4.894531 0.734375 -5.375 C 0.878906 -5.851562 1.082031 -6.257812 1.34375 -6.59375 C 1.601562 -6.9375 1.921875 -7.195312 2.296875 -7.375 C 2.679688 -7.5625 3.125 -7.65625 3.625 -7.65625 C 4.113281 -7.65625 4.550781 -7.5625 4.9375 -7.375 C 5.320312 -7.195312 5.640625 -6.941406 5.890625 -6.609375 C 6.148438 -6.273438 6.347656 -5.863281 6.484375 -5.375 C 6.617188 -4.894531 6.6875 -4.351562 6.6875 -3.75 C 6.6875 -3.144531 6.617188 -2.601562 6.484375 -2.125 C 6.347656 -1.644531 6.148438 -1.234375 5.890625 -0.890625 C 5.640625 -0.554688 5.320312 -0.300781 4.9375 -0.125 C 4.550781 0.0507812 4.113281 0.140625 3.625 0.140625 C 2.84375 0.140625 2.207031 -0.078125 1.71875 -0.515625 Z M 1.71875 -0.515625 "/></g></g></g><g fill="#2a7f4a" fill-opacity="1"><g transform="translate(235.992179, 253.107523)"><g><path d="M 3.140625 -1.015625 L 5.328125 -1.015625 C 5.328125 -0.847656 5.316406 -0.691406 5.296875 -0.546875 C 5.234375 -0.171875 4.984375 0.015625 4.546875 0.015625 L 1.671875 0.015625 C 1.460938 0.015625 1.296875 -0.046875 1.171875 -0.171875 C 1.046875 -0.304688 0.984375 -0.488281 0.984375 -0.71875 L 0.984375 -7.484375 L 1.0625 -7.5625 L 1.5 -7.5625 C 1.75 -7.5625 1.921875 -7.5 2.015625 -7.375 C 2.117188 -7.257812 2.171875 -7.070312 2.171875 -6.8125 L 2.171875 -0.96875 C 2.472656 -1 2.796875 -1.015625 3.140625 -1.015625 Z M 3.140625 -1.015625 "/></g></g></g><g fill="#2a7f4a" fill-opacity="1"><g transform="translate(246.361207, 253.107523)"><g><path d="M 6.453125 -7.515625 L 6.453125 -2.640625 C 6.453125 -1.742188 6.203125 -1.054688 5.703125 -0.578125 C 5.210938 -0.0976562 4.535156 0.140625 3.671875 0.140625 C 2.816406 0.140625 2.140625 -0.09375 1.640625 -0.5625 C 1.148438 -1.039062 0.90625 -1.734375 0.90625 -2.640625 L 0.90625 -7.484375 L 0.96875 -7.5625 L 1.421875 -7.5625 C 1.648438 -7.5625 1.8125 -7.5 1.90625 -7.375 C 2.007812 -7.257812 2.0625 -7.070312 2.0625 -6.8125 L 2.0625 -2.640625 C 2.0625 -2.035156 2.195312 -1.578125 2.46875 -1.265625 C 2.738281 -0.953125 3.140625 -0.796875 3.671875 -0.796875 C 4.742188 -0.796875 5.28125 -1.410156 5.28125 -2.640625 L 5.28125 -7.515625 C 5.363281 -7.523438 5.453125 -7.535156 5.546875 -7.546875 C 5.648438 -7.554688 5.753906 -7.5625 5.859375 -7.5625 C 5.972656 -7.5625 6.082031 -7.554688 6.1875 -7.546875 C 6.289062 -7.535156 6.378906 -7.523438 6.453125 -7.515625 Z M 6.453125 -7.515625 "/></g></g></g><g fill="#2a7f4a" fill-opacity="1"><g transform="translate(258.45602, 253.107523)"><g><path d="M 3.9375 -6.515625 L 3.296875 -6.53125 L 3.296875 0 C 3.128906 0.03125 2.929688 0.046875 2.703125 0.046875 C 2.484375 0.046875 2.289062 0.03125 2.125 0 L 2.125 -5.71875 L 2.140625 -6.53125 L 2.125 -6.53125 L 1.5 -6.515625 L 0.1875 -6.515625 C 0.15625 -6.671875 0.140625 -6.835938 0.140625 -7.015625 C 0.140625 -7.191406 0.15625 -7.359375 0.1875 -7.515625 L 5.25 -7.515625 C 5.289062 -7.335938 5.3125 -7.164062 5.3125 -7 C 5.3125 -6.675781 5.09375 -6.515625 4.65625 -6.515625 Z M 3.9375 -6.515625 "/></g></g></g><g fill="#2a7f4a" fill-opacity="1"><g transform="translate(268.605212, 253.107523)"><g><path d="M 1.03125 0 L 1.03125 -7.515625 C 1.175781 -7.546875 1.367188 -7.5625 1.609375 -7.5625 C 1.847656 -7.5625 2.046875 -7.546875 2.203125 -7.515625 L 2.203125 0 C 2.046875 0.03125 1.847656 0.046875 1.609375 0.046875 C 1.367188 0.046875 1.175781 0.03125 1.03125 0 Z M 1.03125 0 "/></g></g></g><g fill="#2a7f4a" fill-opacity="1"><g transform="translate(276.577944, 253.107523)"><g><path d="M 2.109375 -5.734375 C 1.984375 -5.421875 1.894531 -5.109375 1.84375 -4.796875 C 1.789062 -4.484375 1.765625 -4.15625 1.765625 -3.8125 C 1.765625 -3.4375 1.789062 -3.066406 1.84375 -2.703125 C 1.894531 -2.347656 1.988281 -2.023438 2.125 -1.734375 C 2.269531 -1.453125 2.460938 -1.222656 2.703125 -1.046875 C 2.941406 -0.878906 3.25 -0.796875 3.625 -0.796875 C 4.03125 -0.796875 4.351562 -0.894531 4.59375 -1.09375 C 4.832031 -1.289062 5.015625 -1.539062 5.140625 -1.84375 C 5.265625 -2.144531 5.347656 -2.46875 5.390625 -2.8125 C 5.429688 -3.15625 5.453125 -3.472656 5.453125 -3.765625 C 5.453125 -4.054688 5.429688 -4.375 5.390625 -4.71875 C 5.347656 -5.0625 5.265625 -5.378906 5.140625 -5.671875 C 5.023438 -5.972656 4.84375 -6.222656 4.59375 -6.421875 C 4.34375 -6.617188 4.019531 -6.71875 3.625 -6.71875 C 3.25 -6.71875 2.929688 -6.628906 2.671875 -6.453125 C 2.421875 -6.273438 2.234375 -6.035156 2.109375 -5.734375 Z M 1.71875 -0.515625 C 0.925781 -1.191406 0.53125 -2.269531 0.53125 -3.75 C 0.53125 -4.351562 0.597656 -4.894531 0.734375 -5.375 C 0.878906 -5.851562 1.082031 -6.257812 1.34375 -6.59375 C 1.601562 -6.9375 1.921875 -7.195312 2.296875 -7.375 C 2.679688 -7.5625 3.125 -7.65625 3.625 -7.65625 C 4.113281 -7.65625 4.550781 -7.5625 4.9375 -7.375 C 5.320312 -7.195312 5.640625 -6.941406 5.890625 -6.609375 C 6.148438 -6.273438 6.347656 -5.863281 6.484375 -5.375 C 6.617188 -4.894531 6.6875 -4.351562 6.6875 -3.75 C 6.6875 -3.144531 6.617188 -2.601562 6.484375 -2.125 C 6.347656 -1.644531 6.148438 -1.234375 5.890625 -0.890625 C 5.640625 -0.554688 5.320312 -0.300781 4.9375 -0.125 C 4.550781 0.0507812 4.113281 0.140625 3.625 0.140625 C 2.84375 0.140625 2.207031 -0.078125 1.71875 -0.515625 Z M 1.71875 -0.515625 "/></g></g></g><g fill="#2a7f4a" fill-opacity="1"><g transform="translate(288.55184, 253.107523)"><g><path d="M 6.40625 -7.5625 L 6.484375 -7.5 L 6.484375 -0.015625 C 6.273438 0.0234375 6.035156 0.046875 5.765625 0.046875 C 5.503906 0.046875 5.273438 0.03125 5.078125 0 L 2.734375 -4.609375 C 2.492188 -5.097656 2.257812 -5.609375 2.03125 -6.140625 L 1.984375 -6.125 C 2.054688 -4.988281 2.09375 -4.09375 2.09375 -3.4375 L 2.09375 0 C 1.914062 0.03125 1.726562 0.046875 1.53125 0.046875 C 1.34375 0.046875 1.164062 0.03125 1 0 L 1 -7.5 C 1.207031 -7.539062 1.441406 -7.5625 1.703125 -7.5625 C 1.960938 -7.5625 2.191406 -7.546875 2.390625 -7.515625 L 4.71875 -2.90625 C 4.820312 -2.6875 4.957031 -2.382812 5.125 -2 C 5.289062 -1.625 5.394531 -1.394531 5.4375 -1.3125 L 5.484375 -1.3125 C 5.429688 -2.257812 5.40625 -3.1875 5.40625 -4.09375 L 5.40625 -6.828125 C 5.40625 -7.097656 5.445312 -7.285156 5.53125 -7.390625 C 5.625 -7.503906 5.789062 -7.5625 6.03125 -7.5625 Z M 6.40625 -7.5625 "/></g></g></g><g fill="#000000" fill-opacity="1"><g transform="translate(143.759117, 223.150063)"><g><path d="M 23.613281 -17.957031 C 23.488281 -19.390625 20.496094 -21.5625 19.636719 -19.800781 C 19.59375 -19.71875 19.554688 -19.351562 19.390625 -19.105469 C 18.941406 -18.324219 18.285156 -17.585938 17.710938 -16.847656 C 16.273438 -15.003906 14.839844 -13.160156 13.28125 -11.398438 L 11.109375 -9.019531 C 10.988281 -8.855469 9.058594 -6.929688 9.058594 -6.929688 C 9.222656 -6.847656 9.714844 -7.339844 9.839844 -7.421875 C 9.183594 -6.847656 6.476562 -4.425781 5.371094 -5.699219 C 4.425781 -6.765625 5.738281 -9.386719 6.191406 -10.453125 C 6.929688 -12.175781 7.707031 -13.9375 8.566406 -15.617188 C 10.289062 -18.898438 12.421875 -22.136719 14.882812 -24.925781 C 15.742188 -25.910156 17.09375 -27.671875 18.449219 -27.957031 C 20.046875 -28.285156 18.652344 -24.964844 18.859375 -24.925781 C 18.898438 -24.925781 19.964844 -28.082031 18.53125 -28.082031 C 17.875 -28.082031 16.972656 -27.179688 16.480469 -26.769531 C 15.863281 -26.195312 15.332031 -25.621094 14.800781 -25.046875 C 15.90625 -26.277344 18.53125 -29.1875 19.226562 -27.753906 C 19.554688 -27.015625 19.226562 -25.828125 19.023438 -25.089844 C 18.570312 -23.53125 17.832031 -22.054688 16.929688 -20.660156 C 16.972656 -20.742188 17.585938 -21.890625 17.585938 -21.890625 C 17.421875 -21.933594 15.824219 -19.472656 15.78125 -19.269531 C 15.78125 -19.1875 15.90625 -19.308594 16.027344 -19.390625 C 15.78125 -19.0625 15.699219 -18.816406 16.480469 -19.023438 C 17.832031 -19.390625 19.351562 -20.742188 20.332031 -21.6875 C 21.359375 -22.671875 22.589844 -24.0625 22.546875 -25.539062 C 22.546875 -26.113281 22.261719 -26.523438 22.21875 -27.058594 C 22.136719 -27.628906 22.136719 -28.039062 21.769531 -28.613281 C 20.703125 -30.253906 18.898438 -31.402344 16.929688 -31.113281 C 15.167969 -30.910156 13.691406 -29.679688 12.460938 -28.492188 C 11.804688 -27.835938 11.234375 -27.140625 10.617188 -26.441406 C 10.207031 -25.949219 9.304688 -25.253906 9.140625 -24.597656 L 9.46875 -24.925781 C 8.976562 -24.308594 8.566406 -23.652344 8.199219 -23.164062 C 8.15625 -23.164062 8.445312 -23.652344 8.445312 -23.652344 C 8.15625 -23.777344 6.476562 -21.070312 6.3125 -20.824219 C 5.535156 -19.636719 4.835938 -18.449219 4.34375 -17.136719 C 3.855469 -15.824219 3.238281 -14.511719 2.746094 -13.199219 C 2.417969 -12.378906 2.171875 -11.5625 1.96875 -10.742188 C 1.925781 -10.496094 1.84375 -9.265625 1.96875 -9.46875 L 1.84375 -8.527344 L 1.84375 -9.265625 C 1.679688 -9.101562 1.84375 -8.28125 1.84375 -8.238281 C 1.761719 -5.535156 4.304688 -1.640625 7.378906 -2.007812 C 9.183594 -2.214844 10.660156 -3.855469 11.804688 -5.125 C 13.609375 -7.214844 15.25 -9.550781 16.683594 -11.929688 C 15.210938 -7.75 13.816406 -3.566406 12.214844 0.53125 C 10.617188 4.507812 9.019531 8.730469 6.476562 12.214844 C 5.820312 13.078125 4.261719 14.921875 3.15625 13.652344 C 1.96875 12.339844 3.648438 9.222656 4.261719 7.992188 C 5.164062 6.066406 6.3125 4.261719 7.625 2.625 C 7.828125 2.378906 9.796875 0.492188 8.527344 0.574219 C 7.910156 0.613281 7.175781 1.515625 6.765625 1.886719 C 6.191406 2.378906 5.65625 2.953125 5.042969 3.402344 C 3.445312 4.714844 2.007812 6.3125 0.984375 8.117188 C -0.695312 11.152344 -0.367188 14.71875 3.15625 16.191406 C 4.222656 16.644531 5.65625 17.011719 6.765625 16.519531 C 7.871094 16.027344 8.8125 14.800781 9.511719 13.855469 C 10.824219 12.175781 11.683594 10.289062 12.667969 8.402344 C 13.609375 6.640625 14.71875 4.796875 15.25 2.828125 C 15.78125 0.941406 16.765625 -0.859375 17.503906 -2.746094 L 19.964844 -8.773438 C 20.375 -9.921875 20.90625 -11.027344 21.277344 -12.132812 C 21.523438 -12.789062 21.441406 -13.199219 21.726562 -13.773438 C 22.261719 -14.757812 22.792969 -15.742188 23.285156 -16.726562 C 23.488281 -17.136719 23.652344 -17.503906 23.613281 -17.957031 Z M 5.617188 -17.792969 C 6.4375 -19.144531 7.257812 -20.539062 8.15625 -21.808594 C 8.8125 -22.792969 9.59375 -24.1875 10.535156 -24.964844 C 10.167969 -24.636719 9.839844 -23.898438 9.59375 -23.570312 C 9.058594 -22.875 8.566406 -22.136719 8.074219 -21.441406 C 6.929688 -19.675781 5.699219 -17.792969 4.835938 -15.863281 C 4.097656 -14.226562 3.199219 -12.421875 2.789062 -10.617188 C 3.28125 -13.117188 4.304688 -15.535156 5.617188 -17.792969 Z M 21.398438 -14.390625 C 20.742188 -12.585938 20.085938 -10.78125 19.351562 -9.058594 C 18.734375 -7.585938 17.914062 -6.148438 17.421875 -4.671875 C 18.652344 -8.320312 20.167969 -11.929688 21.808594 -15.414062 Z M 16.109375 -1.640625 C 15.988281 -1.476562 15.863281 -1.3125 15.78125 -1.148438 L 16.191406 -2.089844 C 16.273438 -2.253906 16.4375 -2.417969 16.601562 -2.582031 C 16.4375 -2.296875 16.316406 -1.925781 16.109375 -1.640625 Z M 15.742188 -1.023438 L 15.78125 -1.148438 C 15.742188 -1.105469 15.742188 -1.066406 15.742188 -1.023438 Z M 12.832031 -22.589844 C 12.832031 -22.546875 12.789062 -22.507812 12.75 -22.507812 C 12.789062 -22.507812 12.832031 -22.546875 12.832031 -22.589844 Z M 12.832031 -22.589844 "/></g></g></g><g fill="#000000" fill-opacity="1"><g transform="translate(166.591772, 223.150063)"><g><path d="M 16.808594 -9.960938 C 16.5625 -11.027344 15.578125 -9.59375 15.375 -9.347656 L 13.117188 -6.3125 L 10.90625 -3.402344 L 9.714844 -1.886719 C 9.59375 -1.722656 8.691406 -0.574219 8.773438 -0.574219 C 8.855469 -0.65625 8.976562 -0.65625 9.101562 -0.777344 C 8.484375 -0.121094 6.230469 1.925781 5.820312 1.433594 C 5.492188 1.023438 6.394531 -0.695312 6.519531 -1.105469 C 6.96875 -2.296875 7.378906 -3.527344 7.871094 -4.671875 C 8.402344 -5.863281 9.019531 -7.050781 9.511719 -8.238281 C 10.003906 -9.511719 9.265625 -9.960938 8.074219 -10.25 C 7.542969 -10.371094 6.886719 -10.371094 6.273438 -10.453125 C 6.273438 -10.414062 6.3125 -10.414062 6.3125 -10.414062 C 6.847656 -10.332031 7.625 -10.289062 8.28125 -10.085938 C 7.296875 -10.371094 6.066406 -10.25 5.289062 -10.453125 C 4.753906 -10.578125 4.425781 -10.578125 4.507812 -11.191406 C 4.589844 -12.011719 5.453125 -12.871094 5.738281 -13.652344 C 5.738281 -13.609375 5.453125 -12.871094 5.492188 -12.871094 C 5.699219 -12.789062 6.027344 -13.9375 6.027344 -14.101562 C 5.984375 -14.308594 5.492188 -14.921875 5.453125 -14.675781 L 5.535156 -14.554688 C 3.566406 -15.90625 1.230469 -13.117188 1.640625 -11.109375 C 1.722656 -10.824219 1.886719 -10.660156 2.007812 -10.332031 C 2.089844 -10.085938 2.007812 -9.796875 2.253906 -9.46875 C 3.117188 -8.402344 4.671875 -8.363281 5.902344 -8.609375 C 5.699219 -8.320312 3.527344 -3.730469 3.648438 -3.691406 L 3.363281 -2.664062 C 3.320312 -2.707031 3.484375 -3.035156 3.402344 -3.035156 C 3.117188 -3.074219 2.542969 -0.695312 2.5 -0.492188 C 2.335938 0.492188 2.378906 1.351562 2.789062 2.253906 C 3.035156 2.828125 3.320312 3.320312 3.855469 3.648438 C 4.34375 3.976562 4.960938 4.140625 5.535156 4.015625 C 5.738281 3.933594 6.519531 3.402344 6.3125 3.445312 L 6.601562 3.320312 C 6.558594 3.363281 6.519531 3.402344 6.519531 3.445312 C 6.640625 3.484375 8.527344 1.96875 8.773438 1.804688 C 10.085938 0.695312 11.152344 -0.65625 12.132812 -2.007812 C 13.117188 -3.402344 14.144531 -4.796875 15.085938 -6.191406 C 15.535156 -6.847656 15.945312 -7.503906 16.273438 -8.199219 C 16.519531 -8.691406 16.929688 -9.386719 16.808594 -9.960938 Z M 4.550781 -5.042969 C 4.835938 -5.78125 5.164062 -6.476562 5.535156 -7.175781 C 5.617188 -7.296875 6.191406 -8.773438 6.476562 -8.855469 C 6.273438 -8.730469 5.410156 -6.722656 5.207031 -6.355469 L 4.425781 -4.550781 C 4.015625 -3.566406 3.566406 -2.542969 3.28125 -1.476562 C 3.566406 -2.707031 4.058594 -3.894531 4.550781 -5.042969 Z M 3.566406 2.828125 C 3.8125 3.15625 4.140625 3.484375 4.589844 3.648438 C 4.222656 3.527344 3.894531 3.320312 3.648438 3.074219 C 3.691406 3.074219 3.691406 3.117188 3.691406 3.15625 C 3.445312 2.828125 3.117188 2.132812 3.074219 2.007812 C 2.953125 1.515625 2.910156 0.941406 2.953125 0.449219 C 2.953125 0.0390625 2.992188 -0.285156 3.074219 -0.65625 L 3.074219 -0.613281 C 2.992188 -0.0820312 2.953125 0.449219 2.992188 1.023438 L 2.992188 1.230469 C 2.953125 1.1875 2.953125 1.148438 2.953125 1.148438 C 2.953125 1.148438 2.953125 1.1875 2.992188 1.269531 L 2.992188 1.3125 L 3.15625 2.171875 L 3.035156 1.640625 C 3.117188 1.886719 3.320312 2.335938 3.527344 2.789062 L 3.484375 2.746094 C 3.484375 2.789062 3.527344 2.828125 3.566406 2.871094 Z M 4.714844 -10.699219 C 4.917969 -10.535156 5.289062 -10.496094 5.65625 -10.453125 C 5.328125 -10.496094 5.042969 -10.578125 4.835938 -10.742188 C 4.835938 -10.742188 4.589844 -10.945312 4.550781 -11.027344 C 4.550781 -10.945312 4.632812 -10.742188 4.714844 -10.699219 Z M 9.019531 -7.503906 L 8.15625 -5.699219 L 9.019531 -7.542969 Z M 3.117188 -0.777344 C 3.117188 -0.738281 3.074219 -0.695312 3.074219 -0.65625 L 3.074219 -0.695312 C 3.074219 -0.738281 3.117188 -0.738281 3.117188 -0.777344 Z M 9.058594 -7.625 L 9.058594 -7.585938 L 9.019531 -7.585938 Z M 9.058594 -7.625 L 9.058594 -7.585938 L 9.019531 -7.585938 Z M 3.15625 -1.3125 C 3.15625 -1.351562 3.199219 -1.394531 3.199219 -1.476562 C 3.199219 -1.394531 3.15625 -1.351562 3.15625 -1.3125 Z M 3.320312 2.460938 C 3.320312 2.460938 3.363281 2.5 3.363281 2.542969 C 3.363281 2.5 3.320312 2.5 3.320312 2.460938 Z M 4.589844 -11.109375 C 4.550781 -11.109375 4.550781 -11.070312 4.550781 -11.070312 Z M 4.589844 -11.109375 "/></g></g></g><g fill="#000000" fill-opacity="1"><g transform="translate(180.40614, 223.150063)"><g><path d="M 20.867188 -9.878906 C 20.824219 -10.78125 20.085938 -10.003906 19.839844 -9.675781 C 19.308594 -8.894531 18.816406 -8.074219 18.324219 -7.296875 C 17.21875 -5.617188 16.109375 -3.933594 14.839844 -2.335938 C 10.617188 2.871094 13.570312 -6.394531 13.242188 -6.3125 C 13.078125 -6.273438 12.953125 -5.65625 12.914062 -5.535156 C 13.242188 -7.011719 13.855469 -8.773438 14.636719 -10.207031 C 15.085938 -11.109375 15.617188 -11.847656 14.800781 -12.832031 C 13.28125 -14.675781 11.519531 -12.996094 10.535156 -11.722656 C 10.125 -13.28125 9.304688 -15.578125 7.296875 -15.578125 C 6.394531 -15.578125 5.863281 -15.128906 5.246094 -14.59375 C 4.878906 -14.347656 4.589844 -14.308594 4.261719 -14.019531 C 3.730469 -13.652344 3.363281 -13.078125 2.992188 -12.585938 C 1.597656 -10.535156 0.613281 -7.953125 0.164062 -5.574219 C -0.0390625 -4.425781 -0.121094 -3.15625 0.203125 -2.007812 C 0.410156 -1.351562 1.148438 0.121094 2.089844 0 C 2.132812 0 2.050781 -0.0390625 1.925781 -0.121094 C 2.5 0.0390625 3.15625 -0.0390625 3.648438 -0.367188 C 3.691406 -0.285156 3.199219 -0.0820312 3.199219 -0.0820312 C 3.648438 0.613281 7.011719 -3.445312 7.257812 -3.8125 C 7.789062 -4.550781 8.15625 -5.328125 8.648438 -6.109375 C 9.019531 -6.683594 9.59375 -7.421875 10.003906 -8.035156 C 9.960938 -7.75 9.960938 -7.378906 9.960938 -7.378906 C 9.222656 -5.042969 8.527344 -2.5 9.511719 -0.0820312 C 9.960938 1.148438 11.070312 2.296875 12.460938 2.050781 C 13.691406 1.84375 14.71875 0.65625 15.457031 -0.285156 C 16.355469 -1.351562 17.136719 -2.542969 17.914062 -3.773438 C 18.570312 -4.878906 19.1875 -5.984375 19.71875 -7.214844 C 20.046875 -7.992188 20.949219 -8.9375 20.867188 -9.878906 Z M 9.101562 -9.59375 C 8.894531 -9.304688 8.691406 -9.019531 8.527344 -8.730469 L 7.460938 -7.214844 C 6.765625 -6.191406 6.027344 -5.207031 5.246094 -4.261719 C 5.042969 -3.976562 4.058594 -2.707031 3.648438 -2.828125 C 3.035156 -3.035156 3.691406 -5.164062 3.773438 -5.492188 C 3.894531 -6.066406 6.066406 -12.378906 6.640625 -12.503906 C 5.902344 -12.542969 3.527344 -5.125 3.402344 -4.507812 C 3.730469 -6.519531 4.46875 -8.484375 5.289062 -10.332031 C 5.738281 -11.273438 6.765625 -13.773438 8.117188 -13.773438 C 8.855469 -13.773438 9.019531 -12.257812 9.140625 -11.765625 C 9.101562 -11.847656 8.730469 -13.035156 8.691406 -12.996094 C 8.484375 -12.832031 9.304688 -10.578125 9.304688 -10.25 C 9.304688 -9.921875 9.304688 -9.921875 9.101562 -9.59375 Z M 10.042969 -7.585938 C 10.042969 -7.585938 10.167969 -8.15625 10.207031 -8.28125 L 10.414062 -8.566406 Z M 9.429688 -10.125 L 9.429688 -10.535156 C 9.550781 -10.371094 9.550781 -10.25 9.429688 -10.125 Z M 9.429688 -10.125 "/></g></g></g><g fill="#000000" fill-opacity="1"><g transform="translate(198.278743, 223.150063)"><g><path d="M 23.203125 -10.167969 C 22.957031 -10.125 20.824219 -9.46875 20.949219 -9.140625 C 20.949219 -9.101562 21.03125 -9.058594 21.070312 -9.058594 C 20.375 -8.773438 19.472656 -8.730469 18.777344 -8.28125 C 17.996094 -7.75 17.257812 -7.214844 16.4375 -6.765625 C 17.175781 -8.035156 17.875 -9.386719 18.324219 -10.742188 C 18.488281 -11.234375 19.429688 -14.265625 18.816406 -14.59375 C 18.734375 -14.636719 18.695312 -14.265625 18.652344 -14.0625 C 18.695312 -15.699219 18.160156 -18.203125 15.945312 -18.367188 C 14.59375 -18.449219 13.324219 -16.765625 12.585938 -15.863281 C 10.90625 -13.734375 9.429688 -11.4375 7.953125 -9.222656 C 7.542969 -8.609375 3.445312 -1.96875 3.445312 -1.96875 C 3.445312 -1.96875 3.730469 -2.378906 4.097656 -2.910156 C 3.730469 -2.296875 3.363281 -1.640625 3.035156 -0.984375 C 3.199219 -1.597656 4.753906 -6.476562 5.738281 -9.347656 C 5.820312 -9.46875 5.863281 -9.632812 5.902344 -9.757812 L 6.148438 -10.453125 L 6.148438 -10.414062 C 6.519531 -11.519531 6.886719 -12.625 7.214844 -13.773438 C 7.214844 -13.652344 7.050781 -13.035156 7.09375 -13.035156 C 7.339844 -12.996094 7.667969 -14.71875 7.503906 -14.71875 L 7.378906 -14.511719 C 7.503906 -15.128906 7.707031 -15.414062 7.339844 -16.109375 C 7.050781 -16.726562 6.558594 -17.300781 5.863281 -17.464844 C 4.507812 -17.832031 3.855469 -16.726562 3.933594 -15.660156 C 3.933594 -15.496094 4.140625 -15.414062 4.140625 -15.25 C 4.140625 -15.046875 3.933594 -14.675781 3.894531 -14.511719 C 3.609375 -13.652344 3.402344 -12.832031 3.074219 -12.011719 C 2.910156 -11.5625 1.394531 -7.296875 1.394531 -7.296875 C 1.476562 -7.339844 1.515625 -7.421875 1.558594 -7.503906 C 1.433594 -7.132812 1.3125 -6.765625 1.148438 -6.394531 C 1.105469 -6.4375 1.269531 -6.722656 1.1875 -6.722656 C 0.777344 -6.804688 -0.246094 -3.363281 -0.328125 -3.035156 C -0.492188 -2.253906 -0.695312 -1.515625 -0.984375 -0.738281 C -1.105469 -0.328125 -1.269531 0.0820312 -1.394531 0.53125 C -1.394531 0.574219 -1.597656 1.558594 -1.394531 1.1875 C -1.433594 1.3125 -1.476562 1.394531 -1.476562 1.476562 C -1.476562 1.433594 -1.515625 1.394531 -1.515625 1.351562 C -1.640625 1.394531 -1.722656 2.253906 -1.722656 2.296875 C -1.886719 2.746094 -2.089844 3.074219 -2.296875 3.484375 C -2.828125 4.796875 -3.117188 6.230469 -3.320312 7.625 C -3.648438 9.757812 -4.632812 12.953125 -3.566406 14.921875 C -3.199219 15.617188 -2.050781 17.054688 -1.148438 16.191406 C -0.738281 15.78125 -0.738281 14.839844 -0.695312 14.347656 C -0.449219 12.996094 -0.246094 11.601562 0.0390625 10.25 L 0.410156 8.363281 C 0.449219 8.28125 0.777344 6.765625 0.65625 6.804688 C 0.574219 6.886719 0.492188 7.011719 0.449219 7.132812 C 0.65625 6.476562 0.941406 5.863281 1.1875 5.164062 C 1.515625 4.179688 1.761719 3.238281 2.253906 2.335938 C 2.828125 1.433594 3.320312 0.449219 3.855469 -0.449219 C 4.261719 -1.1875 4.632812 -2.132812 5.082031 -2.746094 C 5.207031 -2.910156 5.453125 -2.992188 5.65625 -3.15625 C 6.066406 -3.609375 6.355469 -4.222656 6.683594 -4.714844 C 7.296875 -5.699219 7.828125 -6.683594 8.484375 -7.585938 C 8.773438 -7.992188 12.050781 -12.585938 12.378906 -12.871094 C 12.296875 -12.832031 12.214844 -12.789062 12.132812 -12.707031 C 12.460938 -13.117188 12.832031 -13.488281 13.160156 -13.816406 C 13.199219 -13.773438 12.914062 -13.527344 12.953125 -13.488281 C 13.035156 -13.445312 14.921875 -14.921875 15.25 -14.964844 C 16.152344 -15.128906 15.824219 -13.40625 15.699219 -12.953125 C 15.496094 -12.011719 14.964844 -11.109375 14.511719 -10.289062 C 14.265625 -9.839844 14.019531 -9.429688 13.816406 -8.976562 C 13.773438 -8.9375 13.445312 -8.15625 13.570312 -8.238281 L 13.324219 -7.871094 C 13.40625 -7.992188 13.445312 -8.15625 13.445312 -8.15625 C 13.28125 -8.15625 13.078125 -7.460938 13.035156 -7.339844 C 12.789062 -6.929688 12.460938 -6.601562 12.132812 -6.273438 C 11.273438 -5.289062 10.496094 -4.261719 9.632812 -3.320312 C 8.976562 -2.625 8.117188 -1.394531 7.132812 -1.148438 C 6.4375 -0.984375 5.902344 -1.351562 6.273438 -0.246094 C 6.519531 0.53125 7.421875 2.335938 8.402344 2.335938 C 9.304688 2.335938 10.414062 0.984375 10.945312 0.410156 C 11.5625 -0.285156 12.257812 -0.941406 12.914062 -1.679688 C 13.078125 -1.925781 14.964844 -4.179688 15.25 -4.304688 L 15.210938 -4.304688 C 15.617188 -4.507812 16.027344 -4.34375 16.601562 -4.753906 C 16.929688 -5 17.09375 -5.246094 17.464844 -5.492188 C 17.75 -5.65625 17.875 -5.863281 17.996094 -5.984375 C 17.996094 -5.984375 17.996094 -5.945312 18.039062 -5.945312 C 18.449219 -6.355469 19.023438 -6.230469 19.554688 -6.601562 C 20.210938 -7.050781 21.03125 -7.625 21.605469 -8.15625 C 22.34375 -8.8125 23.367188 -9.183594 23.695312 -10.289062 C 23.53125 -10.25 23.324219 -10.25 23.203125 -10.167969 Z M 2.214844 -5.984375 L 2.214844 -5.945312 C 2.171875 -5.410156 1.804688 -4.796875 1.597656 -4.304688 C 1.3125 -3.527344 1.066406 -2.746094 0.820312 -1.96875 C 0.285156 -0.328125 -0.328125 1.3125 -0.984375 2.871094 C -1.515625 4.179688 -2.007812 5.617188 -2.378906 7.050781 C -1.925781 5.042969 -1.1875 3.074219 -0.613281 1.1875 C -0.0820312 -0.53125 0.738281 -2.214844 1.394531 -3.894531 C 1.476562 -4.097656 2.253906 -5.738281 2.171875 -6.066406 C 2.214844 -6.027344 2.214844 -5.984375 2.214844 -5.984375 Z M 4.015625 -4.753906 C 3.894531 -4.261719 3.773438 -3.8125 3.609375 -3.402344 C 3.730469 -3.8125 3.855469 -4.304688 4.015625 -4.753906 Z M 9.632812 -11.480469 L 8.855469 -10.332031 C 9.101562 -10.699219 9.347656 -11.109375 9.632812 -11.480469 Z M 16.316406 -6.519531 C 16.355469 -6.640625 16.5625 -6.683594 16.683594 -6.765625 Z M 6.519531 -11.316406 C 6.476562 -11.273438 6.4375 -11.152344 6.394531 -10.988281 Z M 6.230469 -10.617188 L 6.394531 -10.988281 Z M 8.363281 -9.59375 L 8.363281 -9.632812 C 8.402344 -9.675781 8.402344 -9.675781 8.402344 -9.714844 C 8.445312 -9.757812 8.402344 -9.675781 8.363281 -9.59375 Z M 6.230469 -10.617188 C 6.230469 -10.535156 6.191406 -10.496094 6.148438 -10.453125 Z M -2.460938 7.421875 C -2.460938 7.378906 -2.460938 7.378906 -2.417969 7.339844 C -2.417969 7.378906 -2.417969 7.378906 -2.460938 7.421875 Z M 4.261719 -5.246094 C 4.261719 -5.207031 4.222656 -5.207031 4.222656 -5.207031 Z M 4.261719 -5.246094 "/></g></g></g><g fill="#000000" fill-opacity="1"><g transform="translate(218.938806, 223.150063)"><g><path d="M 23.203125 -10.167969 C 22.957031 -10.125 20.824219 -9.46875 20.949219 -9.140625 C 20.949219 -9.101562 21.03125 -9.058594 21.070312 -9.058594 C 20.375 -8.773438 19.472656 -8.730469 18.777344 -8.28125 C 17.996094 -7.75 17.257812 -7.214844 16.4375 -6.765625 C 17.175781 -8.035156 17.875 -9.386719 18.324219 -10.742188 C 18.488281 -11.234375 19.429688 -14.265625 18.816406 -14.59375 C 18.734375 -14.636719 18.695312 -14.265625 18.652344 -14.0625 C 18.695312 -15.699219 18.160156 -18.203125 15.945312 -18.367188 C 14.59375 -18.449219 13.324219 -16.765625 12.585938 -15.863281 C 10.90625 -13.734375 9.429688 -11.4375 7.953125 -9.222656 C 7.542969 -8.609375 3.445312 -1.96875 3.445312 -1.96875 C 3.445312 -1.96875 3.730469 -2.378906 4.097656 -2.910156 C 3.730469 -2.296875 3.363281 -1.640625 3.035156 -0.984375 C 3.199219 -1.597656 4.753906 -6.476562 5.738281 -9.347656 C 5.820312 -9.46875 5.863281 -9.632812 5.902344 -9.757812 L 6.148438 -10.453125 L 6.148438 -10.414062 C 6.519531 -11.519531 6.886719 -12.625 7.214844 -13.773438 C 7.214844 -13.652344 7.050781 -13.035156 7.09375 -13.035156 C 7.339844 -12.996094 7.667969 -14.71875 7.503906 -14.71875 L 7.378906 -14.511719 C 7.503906 -15.128906 7.707031 -15.414062 7.339844 -16.109375 C 7.050781 -16.726562 6.558594 -17.300781 5.863281 -17.464844 C 4.507812 -17.832031 3.855469 -16.726562 3.933594 -15.660156 C 3.933594 -15.496094 4.140625 -15.414062 4.140625 -15.25 C 4.140625 -15.046875 3.933594 -14.675781 3.894531 -14.511719 C 3.609375 -13.652344 3.402344 -12.832031 3.074219 -12.011719 C 2.910156 -11.5625 1.394531 -7.296875 1.394531 -7.296875 C 1.476562 -7.339844 1.515625 -7.421875 1.558594 -7.503906 C 1.433594 -7.132812 1.3125 -6.765625 1.148438 -6.394531 C 1.105469 -6.4375 1.269531 -6.722656 1.1875 -6.722656 C 0.777344 -6.804688 -0.246094 -3.363281 -0.328125 -3.035156 C -0.492188 -2.253906 -0.695312 -1.515625 -0.984375 -0.738281 C -1.105469 -0.328125 -1.269531 0.0820312 -1.394531 0.53125 C -1.394531 0.574219 -1.597656 1.558594 -1.394531 1.1875 C -1.433594 1.3125 -1.476562 1.394531 -1.476562 1.476562 C -1.476562 1.433594 -1.515625 1.394531 -1.515625 1.351562 C -1.640625 1.394531 -1.722656 2.253906 -1.722656 2.296875 C -1.886719 2.746094 -2.089844 3.074219 -2.296875 3.484375 C -2.828125 4.796875 -3.117188 6.230469 -3.320312 7.625 C -3.648438 9.757812 -4.632812 12.953125 -3.566406 14.921875 C -3.199219 15.617188 -2.050781 17.054688 -1.148438 16.191406 C -0.738281 15.78125 -0.738281 14.839844 -0.695312 14.347656 C -0.449219 12.996094 -0.246094 11.601562 0.0390625 10.25 L 0.410156 8.363281 C 0.449219 8.28125 0.777344 6.765625 0.65625 6.804688 C 0.574219 6.886719 0.492188 7.011719 0.449219 7.132812 C 0.65625 6.476562 0.941406 5.863281 1.1875 5.164062 C 1.515625 4.179688 1.761719 3.238281 2.253906 2.335938 C 2.828125 1.433594 3.320312 0.449219 3.855469 -0.449219 C 4.261719 -1.1875 4.632812 -2.132812 5.082031 -2.746094 C 5.207031 -2.910156 5.453125 -2.992188 5.65625 -3.15625 C 6.066406 -3.609375 6.355469 -4.222656 6.683594 -4.714844 C 7.296875 -5.699219 7.828125 -6.683594 8.484375 -7.585938 C 8.773438 -7.992188 12.050781 -12.585938 12.378906 -12.871094 C 12.296875 -12.832031 12.214844 -12.789062 12.132812 -12.707031 C 12.460938 -13.117188 12.832031 -13.488281 13.160156 -13.816406 C 13.199219 -13.773438 12.914062 -13.527344 12.953125 -13.488281 C 13.035156 -13.445312 14.921875 -14.921875 15.25 -14.964844 C 16.152344 -15.128906 15.824219 -13.40625 15.699219 -12.953125 C 15.496094 -12.011719 14.964844 -11.109375 14.511719 -10.289062 C 14.265625 -9.839844 14.019531 -9.429688 13.816406 -8.976562 C 13.773438 -8.9375 13.445312 -8.15625 13.570312 -8.238281 L 13.324219 -7.871094 C 13.40625 -7.992188 13.445312 -8.15625 13.445312 -8.15625 C 13.28125 -8.15625 13.078125 -7.460938 13.035156 -7.339844 C 12.789062 -6.929688 12.460938 -6.601562 12.132812 -6.273438 C 11.273438 -5.289062 10.496094 -4.261719 9.632812 -3.320312 C 8.976562 -2.625 8.117188 -1.394531 7.132812 -1.148438 C 6.4375 -0.984375 5.902344 -1.351562 6.273438 -0.246094 C 6.519531 0.53125 7.421875 2.335938 8.402344 2.335938 C 9.304688 2.335938 10.414062 0.984375 10.945312 0.410156 C 11.5625 -0.285156 12.257812 -0.941406 12.914062 -1.679688 C 13.078125 -1.925781 14.964844 -4.179688 15.25 -4.304688 L 15.210938 -4.304688 C 15.617188 -4.507812 16.027344 -4.34375 16.601562 -4.753906 C 16.929688 -5 17.09375 -5.246094 17.464844 -5.492188 C 17.75 -5.65625 17.875 -5.863281 17.996094 -5.984375 C 17.996094 -5.984375 17.996094 -5.945312 18.039062 -5.945312 C 18.449219 -6.355469 19.023438 -6.230469 19.554688 -6.601562 C 20.210938 -7.050781 21.03125 -7.625 21.605469 -8.15625 C 22.34375 -8.8125 23.367188 -9.183594 23.695312 -10.289062 C 23.53125 -10.25 23.324219 -10.25 23.203125 -10.167969 Z M 2.214844 -5.984375 L 2.214844 -5.945312 C 2.171875 -5.410156 1.804688 -4.796875 1.597656 -4.304688 C 1.3125 -3.527344 1.066406 -2.746094 0.820312 -1.96875 C 0.285156 -0.328125 -0.328125 1.3125 -0.984375 2.871094 C -1.515625 4.179688 -2.007812 5.617188 -2.378906 7.050781 C -1.925781 5.042969 -1.1875 3.074219 -0.613281 1.1875 C -0.0820312 -0.53125 0.738281 -2.214844 1.394531 -3.894531 C 1.476562 -4.097656 2.253906 -5.738281 2.171875 -6.066406 C 2.214844 -6.027344 2.214844 -5.984375 2.214844 -5.984375 Z M 4.015625 -4.753906 C 3.894531 -4.261719 3.773438 -3.8125 3.609375 -3.402344 C 3.730469 -3.8125 3.855469 -4.304688 4.015625 -4.753906 Z M 9.632812 -11.480469 L 8.855469 -10.332031 C 9.101562 -10.699219 9.347656 -11.109375 9.632812 -11.480469 Z M 16.316406 -6.519531 C 16.355469 -6.640625 16.5625 -6.683594 16.683594 -6.765625 Z M 6.519531 -11.316406 C 6.476562 -11.273438 6.4375 -11.152344 6.394531 -10.988281 Z M 6.230469 -10.617188 L 6.394531 -10.988281 Z M 8.363281 -9.59375 L 8.363281 -9.632812 C 8.402344 -9.675781 8.402344 -9.675781 8.402344 -9.714844 C 8.445312 -9.757812 8.402344 -9.675781 8.363281 -9.59375 Z M 6.230469 -10.617188 C 6.230469 -10.535156 6.191406 -10.496094 6.148438 -10.453125 Z M -2.460938 7.421875 C -2.460938 7.378906 -2.460938 7.378906 -2.417969 7.339844 C -2.417969 7.378906 -2.417969 7.378906 -2.460938 7.421875 Z M 4.261719 -5.246094 C 4.261719 -5.207031 4.222656 -5.207031 4.222656 -5.207031 Z M 4.261719 -5.246094 "/></g></g></g><g fill="#000000" fill-opacity="1"><g transform="translate(239.59887, 223.150063)"><g><path d="M 16.398438 -10.453125 C 15.824219 -9.839844 15.457031 -8.8125 15.003906 -8.074219 C 14.308594 -6.886719 13.609375 -5.738281 12.871094 -4.589844 C 11.480469 -2.378906 10.085938 -0.121094 8.402344 1.886719 C 7.707031 2.746094 6.230469 4.835938 4.835938 4.671875 C 3.8125 4.507812 3.8125 2.746094 3.8125 1.96875 C 3.8125 1.3125 3.855469 0.65625 3.933594 0.0390625 C 3.976562 -0.328125 4.304688 -1.558594 4.097656 -1.886719 L 3.773438 -0.65625 C 3.8125 -1.148438 3.894531 -1.679688 4.015625 -2.171875 C 3.976562 -2.253906 4.34375 -3.402344 4.425781 -3.773438 C 4.632812 -4.589844 4.835938 -5.410156 5.082031 -6.230469 C 5.289062 -7.050781 5.492188 -7.828125 5.738281 -8.609375 C 5.945312 -9.347656 6.230469 -9.714844 6.683594 -10.289062 C 8.527344 -12.585938 10.207031 -15.085938 11.765625 -17.585938 C 12.339844 -18.53125 12.707031 -19.351562 13.40625 -20.128906 C 14.429688 -21.195312 15.128906 -22.792969 15.78125 -24.105469 C 16.890625 -26.238281 18.367188 -29.1875 18.121094 -31.6875 L 18.121094 -31.894531 L 18.078125 -31.933594 C 17.832031 -33.535156 16.355469 -35.417969 14.554688 -34.847656 C 13.609375 -34.558594 12.914062 -33.574219 12.339844 -32.878906 L 11.398438 -31.605469 C 11.191406 -31.359375 10.90625 -30.746094 10.699219 -30.417969 L 10.742188 -30.460938 L 9.429688 -28.203125 L 9.757812 -28.902344 C 9.550781 -28.941406 8.648438 -27.179688 8.527344 -26.976562 C 8.074219 -26.195312 7.667969 -25.417969 7.296875 -24.636719 C 6.476562 -23 5.65625 -21.316406 5.125 -19.554688 C 4.550781 -17.792969 3.894531 -16.070312 3.28125 -14.308594 C 2.953125 -13.363281 2.625 -12.378906 2.335938 -11.4375 C 2.089844 -10.660156 1.515625 -9.386719 1.640625 -8.566406 L 1.761719 -8.566406 C 1.640625 -8.28125 1.558594 -7.992188 1.476562 -7.707031 C 1.515625 -7.953125 1.515625 -8.238281 1.558594 -8.320312 C 1.351562 -8.035156 1.394531 -7.050781 1.351562 -6.96875 C 0.820312 -4.753906 0.203125 -2.542969 0.0390625 -0.246094 C -0.0820312 1.925781 -0.0820312 4.796875 1.640625 6.394531 C 3.566406 8.15625 5.78125 6.96875 7.378906 5.453125 C 9.265625 3.609375 10.863281 1.433594 12.339844 -0.695312 C 13.691406 -2.664062 14.757812 -4.753906 15.988281 -6.722656 C 16.480469 -7.542969 17.011719 -8.363281 17.257812 -9.265625 C 17.421875 -9.921875 17.339844 -11.4375 16.398438 -10.453125 Z M 11.273438 -25.128906 C 12.09375 -27.097656 12.914062 -29.105469 14.0625 -30.953125 C 14.347656 -31.402344 16.191406 -33.863281 16.109375 -31.6875 L 16.109375 -31.648438 C 16.027344 -29.351562 14.554688 -26.933594 13.570312 -24.964844 L 11.847656 -21.769531 C 11.273438 -20.785156 10.289062 -19.554688 9.960938 -18.488281 C 10.207031 -19.144531 10.945312 -20.085938 11.316406 -20.703125 C 11.929688 -21.726562 12.460938 -22.753906 13.035156 -23.777344 C 13.980469 -25.582031 15.003906 -27.464844 15.699219 -29.433594 C 13.855469 -23.941406 10.414062 -18.816406 7.378906 -13.9375 C 8.566406 -17.546875 9.757812 -21.480469 11.273438 -25.128906 Z M 9.960938 -28 C 10.371094 -28.777344 11.109375 -29.433594 11.519531 -30.171875 C 10.660156 -28.449219 9.59375 -26.894531 8.691406 -25.253906 C 8.691406 -25.292969 8.691406 -25.375 8.730469 -25.417969 C 9.101562 -26.320312 9.511719 -27.140625 9.960938 -28 Z M 2.214844 -6.804688 C 2.171875 -6.722656 2.171875 -6.683594 2.171875 -6.683594 C 1.679688 -5.535156 1.640625 -3.976562 1.394531 -2.746094 C 1.351562 -2.460938 1.269531 -2.214844 1.269531 -1.925781 L 1.269531 -2.050781 L 1.148438 -0.738281 C 1.230469 -2.214844 1.394531 -3.730469 1.679688 -5.164062 L 1.679688 -5.125 C 1.804688 -6.066406 2.007812 -6.929688 2.171875 -6.929688 C 2.253906 -6.96875 2.253906 -6.847656 2.214844 -6.804688 Z M 2.214844 -6.804688 "/></g></g></g><g fill="#000000" fill-opacity="1"><g transform="translate(254.110103, 223.150063)"><g><path d="M 15.699219 -10.125 C 15.699219 -10.085938 15.699219 -10.085938 15.660156 -10.125 L 15.660156 -10.167969 C 15.003906 -11.273438 14.144531 -9.757812 13.773438 -9.222656 C 13.078125 -8.28125 12.421875 -7.378906 11.683594 -6.519531 C 11.070312 -5.78125 10.414062 -5.042969 9.921875 -4.261719 C 9.921875 -4.179688 9.839844 -3.976562 9.839844 -3.976562 C 9.675781 -3.730469 9.429688 -3.527344 9.222656 -3.28125 C 8.855469 -2.910156 8.484375 -2.5 8.074219 -2.132812 C 7.460938 -1.558594 4.015625 1.679688 3.566406 -0.410156 C 3.320312 -1.433594 3.648438 -2.707031 3.855469 -3.691406 C 3.976562 -4.222656 4.097656 -4.714844 4.179688 -5.246094 C 4.261719 -5.65625 4.140625 -6.066406 4.34375 -6.476562 C 4.46875 -6.722656 4.507812 -6.683594 4.796875 -6.765625 L 5.492188 -7.011719 C 5.945312 -7.175781 6.394531 -7.339844 6.804688 -7.585938 C 7.421875 -7.953125 7.992188 -8.402344 8.527344 -8.855469 C 9.796875 -9.921875 11.152344 -11.191406 11.683594 -12.789062 C 11.96875 -13.691406 12.011719 -14.675781 11.4375 -15.457031 C 10.90625 -16.152344 10.003906 -16.519531 9.183594 -16.683594 C 6.96875 -17.09375 5.289062 -15.824219 4.015625 -14.144531 C 2.460938 -12.214844 1.351562 -9.839844 0.820312 -7.421875 C 0.53125 -6.230469 0.367188 -5.042969 0.164062 -3.8125 C -0.0390625 -2.582031 -0.164062 -1.433594 0.492188 -0.285156 C 0.449219 -0.695312 0.367188 -1.066406 0.367188 -1.433594 C 0.367188 -1.640625 0.449219 -1.84375 0.449219 -2.007812 C 0.449219 -2.089844 0.367188 -2.335938 0.367188 -2.460938 C 0.367188 -2.828125 0.449219 -3.117188 0.53125 -3.484375 C 0.574219 -3.855469 0.53125 -4.222656 0.574219 -4.589844 C 0.613281 -5 0.777344 -5.328125 0.941406 -5.699219 C 1.066406 -6.027344 1.105469 -6.3125 1.230469 -6.640625 C 1.351562 -6.929688 1.433594 -7.257812 1.558594 -7.585938 C 1.597656 -7.789062 1.804688 -8.035156 1.925781 -8.28125 C 1.804688 -7.910156 1.558594 -7.585938 1.476562 -7.257812 C 1.351562 -6.765625 1.433594 -6.230469 1.394531 -5.738281 C 1.3125 -5.207031 1.148438 -4.671875 1.066406 -4.097656 C 0.984375 -3.566406 0.738281 -3.074219 0.65625 -2.542969 C 0.574219 -2.050781 0.410156 -1.679688 0.449219 -1.1875 C 0.449219 -0.902344 0.492188 -0.613281 0.53125 -0.367188 C 0.574219 -0.0390625 0.777344 0.164062 0.984375 0.410156 C 1.679688 1.230469 2.625 1.886719 3.691406 2.171875 C 4.425781 2.378906 5.082031 2.335938 5.78125 1.96875 C 6.765625 1.433594 7.625 0.613281 8.363281 -0.164062 C 9.058594 -0.941406 9.59375 -1.804688 10.207031 -2.625 C 10.78125 -3.363281 11.480469 -4.058594 12.050781 -4.796875 L 14.265625 -7.667969 L 15.535156 -9.347656 C 15.742188 -9.59375 15.863281 -9.796875 15.699219 -10.125 Z M 5.535156 -9.675781 C 5.574219 -9.757812 5.574219 -9.796875 5.574219 -9.796875 C 6.191406 -11.109375 6.640625 -12.503906 7.503906 -13.773438 L 8.238281 -14.757812 C 8.402344 -14.964844 8.691406 -15.332031 8.976562 -15.414062 C 9.59375 -15.535156 9.757812 -14.472656 9.714844 -14.0625 L 9.550781 -13.199219 C 9.511719 -12.953125 9.59375 -12.789062 9.550781 -12.585938 C 9.46875 -12.339844 9.265625 -12.214844 9.140625 -12.011719 L 8.445312 -11.109375 C 7.503906 -10.003906 6.3125 -9.058594 5 -8.363281 C 5.207031 -8.8125 5.328125 -9.265625 5.535156 -9.675781 Z M 5.535156 -9.675781 "/></g></g></g></svg>