<svg xmlns="http://www.w3.org/2000/svg" xmlns:xlink="http://www.w3.org/1999/xlink" width="150" zoomAndPan="magnify" viewBox="0 0 112.5 112.499997" height="150" preserveAspectRatio="xMidYMid meet" version="1.0"><defs><g/><clipPath id="f20983b5ed"><path d="M 0 0 L 112.003906 0 L 112.003906 112.003906 L 0 112.003906 Z M 0 0 " clip-rule="nonzero"/></clipPath><clipPath id="415872bd02"><path d="M 27 18 L 80 18 L 80 65 L 27 65 Z M 27 18 " clip-rule="nonzero"/></clipPath><clipPath id="897d3ffa20"><path d="M -3.960938 20.332031 L 109.625 10.609375 L 116.210938 87.578125 L 2.628906 97.300781 Z M -3.960938 20.332031 " clip-rule="nonzero"/></clipPath><clipPath id="edf982b824"><path d="M -3.960938 20.3125 L 109.621094 10.59375 L 116.210938 87.5625 L 2.625 97.28125 Z M -3.960938 20.3125 " clip-rule="nonzero"/></clipPath><clipPath id="c9d5039f4d"><path d="M -3.960938 20.3125 L 109.621094 10.59375 L 116.210938 87.5625 L 2.625 97.28125 Z M -3.960938 20.3125 " clip-rule="nonzero"/></clipPath><clipPath id="c08b20c52d"><path d="M 20 20 L 44 20 L 44 80 L 20 80 Z M 20 20 " clip-rule="nonzero"/></clipPath><clipPath id="7ca0888463"><path d="M -3.960938 20.332031 L 109.625 10.609375 L 116.210938 87.578125 L 2.628906 97.300781 Z M -3.960938 20.332031 " clip-rule="nonzero"/></clipPath><clipPath id="4e89ff6f81"><path d="M -3.960938 20.3125 L 109.621094 10.59375 L 116.210938 87.5625 L 2.625 97.28125 Z M -3.960938 20.3125 " clip-rule="nonzero"/></clipPath><clipPath id="db1c8aebda"><path d="M -3.960938 20.3125 L 109.621094 10.59375 L 116.210938 87.5625 L 2.625 97.28125 Z M -3.960938 20.3125 " clip-rule="nonzero"/></clipPath><clipPath id="e3444a85e0"><path d="M 7 42 L 37 42 L 37 91 L 7 91 Z M 7 42 " clip-rule="nonzero"/></clipPath><clipPath id="8edd5e64ab"><path d="M -3.960938 20.332031 L 109.625 10.609375 L 116.210938 87.578125 L 2.628906 97.300781 Z M -3.960938 20.332031 " clip-rule="nonzero"/></clipPath><clipPath id="1263711f7a"><path d="M -3.960938 20.3125 L 109.621094 10.59375 L 116.210938 87.5625 L 2.625 97.28125 Z M -3.960938 20.3125 " clip-rule="nonzero"/></clipPath><clipPath id="34c0c8d12f"><path d="M -3.960938 20.3125 L 109.621094 10.59375 L 116.210938 87.5625 L 2.625 97.28125 Z M -3.960938 20.3125 " clip-rule="nonzero"/></clipPath><clipPath id="1512346e61"><path d="M 0 72 L 47 72 L 47 95 L 0 95 Z M 0 72 " clip-rule="nonzero"/></clipPath><clipPath id="668cbbf2c9"><path d="M -3.960938 20.332031 L 109.625 10.609375 L 116.210938 87.578125 L 2.628906 97.300781 Z M -3.960938 20.332031 " clip-rule="nonzero"/></clipPath><clipPath id="af833d7ca5"><path d="M -3.960938 20.3125 L 109.621094 10.59375 L 116.210938 87.5625 L 2.625 97.28125 Z M -3.960938 20.3125 " clip-rule="nonzero"/></clipPath><clipPath id="53d8e1b087"><path d="M -3.960938 20.3125 L 109.621094 10.59375 L 116.210938 87.5625 L 2.625 97.28125 Z M -3.960938 20.3125 " clip-rule="nonzero"/></clipPath><clipPath id="7380fa24c0"><path d="M 0.539062 72.539062 L 44.917969 68.738281 L 47.050781 93.667969 L 2.671875 97.46875 Z M 0.539062 72.539062 " clip-rule="nonzero"/></clipPath><clipPath id="5c56ffdfe1"><path d="M 0.539062 72.539062 L 44.917969 68.738281 L 47.035156 93.472656 L 2.65625 97.269531 Z M 0.539062 72.539062 " clip-rule="nonzero"/></clipPath><clipPath id="d584d1af77"><path d="M 34 34 L 108 34 L 108 57 L 34 57 Z M 34 34 " clip-rule="nonzero"/></clipPath><clipPath id="1e01221c64"><path d="M -3.960938 20.332031 L 109.625 10.609375 L 116.210938 87.578125 L 2.628906 97.300781 Z M -3.960938 20.332031 " clip-rule="nonzero"/></clipPath><clipPath id="795294214e"><path d="M -3.960938 20.3125 L 109.621094 10.59375 L 116.210938 87.5625 L 2.625 97.28125 Z M -3.960938 20.3125 " clip-rule="nonzero"/></clipPath><clipPath id="0469bcfe75"><path d="M -3.960938 20.3125 L 109.621094 10.59375 L 116.210938 87.5625 L 2.625 97.28125 Z M -3.960938 20.3125 " clip-rule="nonzero"/></clipPath></defs><g clip-path="url(#f20983b5ed)"><path fill="#ffffff" d="M 0 0 L 112.5 0 L 112.5 120 L 0 120 Z M 0 0 " fill-opacity="1" fill-rule="nonzero"/><path fill="#ffffff" d="M 0 0 L 112.5 0 L 112.5 112.5 L 0 112.5 Z M 0 0 " fill-opacity="1" fill-rule="nonzero"/><path fill="#ffffff" d="M 0 0 L 112.5 0 L 112.5 112.5 L 0 112.5 Z M 0 0 " fill-opacity="1" fill-rule="nonzero"/></g><g clip-path="url(#415872bd02)"><g clip-path="url(#897d3ffa20)"><g clip-path="url(#edf982b824)"><g clip-path="url(#c9d5039f4d)"><path fill="#34b456" d="M 27.980469 64.414062 C 35.765625 42.082031 49.757812 33.765625 72.585938 30.4375 C 84.59375 28.683594 80.511719 16.457031 69.164062 18.808594 C 45.132812 23.785156 32.683594 40.746094 27.980469 64.414062 " fill-opacity="1" fill-rule="evenodd"/></g></g></g></g><g clip-path="url(#c08b20c52d)"><g clip-path="url(#7ca0888463)"><g clip-path="url(#4e89ff6f81)"><g clip-path="url(#db1c8aebda)"><path fill="#8fd23c" d="M 26.863281 79.761719 C 20.492188 59.378906 26.140625 45.796875 40.84375 31.023438 C 48.578125 23.246094 39.0625 16.617188 32.121094 24.460938 C 17.433594 41.074219 17.542969 60.082031 26.863281 79.761719 " fill-opacity="1" fill-rule="evenodd"/></g></g></g></g><g clip-path="url(#e3444a85e0)"><g clip-path="url(#8edd5e64ab)"><g clip-path="url(#1263711f7a)"><g clip-path="url(#34c0c8d12f)"><path fill="#c1e475" d="M 36.207031 90.710938 C 19.871094 80.609375 15.703125 68.003906 17.003906 49.199219 C 17.6875 39.316406 7.300781 40.445312 7.207031 49.914062 C 7 69.960938 18.273438 82.839844 36.207031 90.710938 " fill-opacity="1" fill-rule="evenodd"/></g></g></g></g><g clip-path="url(#1512346e61)"><g clip-path="url(#668cbbf2c9)"><g clip-path="url(#af833d7ca5)"><g clip-path="url(#53d8e1b087)"><g clip-path="url(#7380fa24c0)"><g clip-path="url(#5c56ffdfe1)"><path fill="#ddef8f" d="M 46.886719 91.945312 C 29.824219 94.871094 19.527344 88.820312 9.253906 75.296875 C 3.851562 68.179688 -2.503906 75.164062 3.046875 81.636719 C 14.796875 95.347656 30.074219 97.335938 46.886719 91.945312 " fill-opacity="1" fill-rule="evenodd"/></g></g></g></g></g></g><g clip-path="url(#d584d1af77)"><g clip-path="url(#1e01221c64)"><g clip-path="url(#795294214e)"><g clip-path="url(#0469bcfe75)"><path fill="#2a7f4a" d="M 34.683594 56.332031 C 55.386719 40.324219 73.394531 41.105469 96.621094 51.882812 C 108.835938 57.546875 112.410156 43.710938 100.445312 39 C 75.109375 29.027344 53.324219 37.214844 34.683594 56.332031 " fill-opacity="1" fill-rule="evenodd"/></g></g></g></g><g fill="#000000" fill-opacity="1"><g transform="translate(32.260749, 77.363043)"><g><path d="M 13.984375 -10.632812 C 13.910156 -11.484375 12.140625 -12.769531 11.628906 -11.726562 C 11.605469 -11.679688 11.582031 -11.460938 11.484375 -11.3125 C 11.214844 -10.851562 10.828125 -10.414062 10.488281 -9.976562 C 9.636719 -8.886719 8.789062 -7.792969 7.867188 -6.75 L 6.578125 -5.339844 C 6.507812 -5.246094 5.367188 -4.101562 5.367188 -4.101562 C 5.460938 -4.054688 5.753906 -4.347656 5.828125 -4.394531 C 5.4375 -4.054688 3.835938 -2.621094 3.179688 -3.375 C 2.621094 -4.007812 3.398438 -5.558594 3.667969 -6.191406 C 4.101562 -7.210938 4.5625 -8.253906 5.074219 -9.25 C 6.09375 -11.191406 7.355469 -13.109375 8.8125 -14.761719 C 9.324219 -15.34375 10.125 -16.386719 10.925781 -16.558594 C 11.871094 -16.753906 11.046875 -14.785156 11.167969 -14.761719 C 11.191406 -14.761719 11.824219 -16.628906 10.972656 -16.628906 C 10.585938 -16.628906 10.050781 -16.097656 9.761719 -15.855469 C 9.394531 -15.515625 9.082031 -15.175781 8.765625 -14.835938 C 9.421875 -15.5625 10.972656 -17.285156 11.386719 -16.4375 C 11.582031 -16 11.386719 -15.296875 11.265625 -14.859375 C 11 -13.9375 10.5625 -13.0625 10.027344 -12.238281 C 10.050781 -12.285156 10.414062 -12.964844 10.414062 -12.964844 C 10.316406 -12.988281 9.371094 -11.53125 9.347656 -11.410156 C 9.347656 -11.363281 9.421875 -11.433594 9.492188 -11.484375 C 9.347656 -11.289062 9.296875 -11.144531 9.761719 -11.265625 C 10.5625 -11.484375 11.460938 -12.285156 12.042969 -12.84375 C 12.648438 -13.425781 13.378906 -14.25 13.351562 -15.125 C 13.351562 -15.464844 13.183594 -15.707031 13.160156 -16.023438 C 13.109375 -16.363281 13.109375 -16.605469 12.890625 -16.945312 C 12.261719 -17.917969 11.191406 -18.597656 10.027344 -18.425781 C 8.984375 -18.304688 8.109375 -17.578125 7.378906 -16.875 C 6.992188 -16.484375 6.652344 -16.074219 6.289062 -15.660156 C 6.046875 -15.367188 5.511719 -14.957031 5.414062 -14.566406 L 5.609375 -14.761719 C 5.316406 -14.398438 5.074219 -14.007812 4.855469 -13.71875 C 4.832031 -13.71875 5 -14.007812 5 -14.007812 C 4.832031 -14.082031 3.835938 -12.480469 3.738281 -12.332031 C 3.277344 -11.628906 2.863281 -10.925781 2.574219 -10.148438 C 2.28125 -9.371094 1.917969 -8.59375 1.625 -7.816406 C 1.433594 -7.332031 1.285156 -6.847656 1.164062 -6.359375 C 1.140625 -6.214844 1.09375 -5.488281 1.164062 -5.609375 L 1.09375 -5.050781 L 1.09375 -5.488281 C 0.996094 -5.390625 1.09375 -4.902344 1.09375 -4.878906 C 1.042969 -3.277344 2.550781 -0.972656 4.371094 -1.191406 C 5.4375 -1.3125 6.3125 -2.28125 6.992188 -3.035156 C 8.058594 -4.273438 9.03125 -5.65625 9.882812 -7.066406 C 9.007812 -4.589844 8.183594 -2.113281 7.234375 0.316406 C 6.289062 2.671875 5.339844 5.171875 3.835938 7.234375 C 3.449219 7.746094 2.523438 8.835938 1.871094 8.085938 C 1.164062 7.308594 2.160156 5.460938 2.523438 4.734375 C 3.058594 3.59375 3.738281 2.523438 4.515625 1.554688 C 4.636719 1.40625 5.800781 0.292969 5.050781 0.339844 C 4.6875 0.363281 4.25 0.898438 4.007812 1.117188 C 3.667969 1.40625 3.351562 1.75 2.984375 2.015625 C 2.039062 2.792969 1.191406 3.738281 0.582031 4.808594 C -0.414062 6.605469 -0.21875 8.714844 1.871094 9.589844 C 2.5 9.855469 3.351562 10.074219 4.007812 9.785156 C 4.660156 9.492188 5.21875 8.765625 5.632812 8.207031 C 6.410156 7.210938 6.917969 6.09375 7.503906 4.976562 C 8.058594 3.933594 8.714844 2.839844 9.03125 1.675781 C 9.347656 0.558594 9.929688 -0.511719 10.367188 -1.625 L 11.824219 -5.195312 C 12.066406 -5.875 12.382812 -6.53125 12.601562 -7.1875 C 12.746094 -7.574219 12.699219 -7.816406 12.867188 -8.15625 C 13.183594 -8.742188 13.5 -9.324219 13.789062 -9.90625 C 13.910156 -10.148438 14.007812 -10.367188 13.984375 -10.632812 Z M 3.324219 -10.535156 C 3.8125 -11.339844 4.296875 -12.164062 4.832031 -12.917969 C 5.21875 -13.5 5.679688 -14.324219 6.238281 -14.785156 C 6.019531 -14.589844 5.828125 -14.15625 5.679688 -13.960938 C 5.367188 -13.546875 5.074219 -13.109375 4.78125 -12.699219 C 4.101562 -11.652344 3.375 -10.535156 2.863281 -9.394531 C 2.429688 -8.425781 1.894531 -7.355469 1.652344 -6.289062 C 1.941406 -7.769531 2.550781 -9.203125 3.324219 -10.535156 Z M 12.671875 -8.523438 C 12.285156 -7.453125 11.894531 -6.386719 11.460938 -5.367188 C 11.09375 -4.492188 10.609375 -3.640625 10.316406 -2.769531 C 11.046875 -4.929688 11.945312 -7.066406 12.917969 -9.128906 Z M 9.542969 -0.972656 C 9.46875 -0.875 9.394531 -0.777344 9.347656 -0.679688 L 9.589844 -1.238281 C 9.636719 -1.335938 9.734375 -1.433594 9.832031 -1.53125 C 9.734375 -1.359375 9.664062 -1.140625 9.542969 -0.972656 Z M 9.324219 -0.605469 L 9.347656 -0.679688 C 9.324219 -0.65625 9.324219 -0.632812 9.324219 -0.605469 Z M 7.597656 -13.378906 C 7.597656 -13.351562 7.574219 -13.328125 7.550781 -13.328125 C 7.574219 -13.328125 7.597656 -13.351562 7.597656 -13.378906 Z M 7.597656 -13.378906 "/></g></g></g><g fill="#000000" fill-opacity="1"><g transform="translate(45.782935, 77.363043)"><g><path d="M 9.953125 -5.898438 C 9.808594 -6.53125 9.226562 -5.679688 9.105469 -5.535156 L 7.769531 -3.738281 L 6.457031 -2.015625 L 5.753906 -1.117188 C 5.679688 -1.019531 5.148438 -0.339844 5.195312 -0.339844 C 5.246094 -0.386719 5.316406 -0.386719 5.390625 -0.460938 C 5.027344 -0.0742188 3.691406 1.140625 3.449219 0.851562 C 3.253906 0.605469 3.789062 -0.414062 3.859375 -0.65625 C 4.128906 -1.359375 4.371094 -2.089844 4.660156 -2.769531 C 4.976562 -3.472656 5.339844 -4.175781 5.632812 -4.878906 C 5.925781 -5.632812 5.488281 -5.898438 4.78125 -6.070312 C 4.46875 -6.140625 4.078125 -6.140625 3.714844 -6.191406 C 3.714844 -6.167969 3.738281 -6.167969 3.738281 -6.167969 C 4.054688 -6.117188 4.515625 -6.09375 4.902344 -5.972656 C 4.320312 -6.140625 3.59375 -6.070312 3.132812 -6.191406 C 2.816406 -6.265625 2.621094 -6.265625 2.671875 -6.628906 C 2.71875 -7.113281 3.230469 -7.625 3.398438 -8.085938 C 3.398438 -8.058594 3.230469 -7.625 3.253906 -7.625 C 3.375 -7.574219 3.570312 -8.253906 3.570312 -8.351562 C 3.542969 -8.472656 3.253906 -8.835938 3.230469 -8.691406 L 3.277344 -8.617188 C 2.113281 -9.421875 0.726562 -7.769531 0.972656 -6.578125 C 1.019531 -6.410156 1.117188 -6.3125 1.191406 -6.117188 C 1.238281 -5.972656 1.191406 -5.800781 1.335938 -5.609375 C 1.84375 -4.976562 2.769531 -4.953125 3.496094 -5.097656 C 3.375 -4.929688 2.089844 -2.210938 2.160156 -2.183594 L 1.992188 -1.578125 C 1.964844 -1.601562 2.0625 -1.796875 2.015625 -1.796875 C 1.84375 -1.820312 1.503906 -0.414062 1.480469 -0.292969 C 1.382812 0.292969 1.40625 0.800781 1.652344 1.335938 C 1.796875 1.675781 1.964844 1.964844 2.28125 2.160156 C 2.574219 2.355469 2.9375 2.453125 3.277344 2.378906 C 3.398438 2.332031 3.859375 2.015625 3.738281 2.039062 L 3.910156 1.964844 C 3.882812 1.992188 3.859375 2.015625 3.859375 2.039062 C 3.933594 2.0625 5.050781 1.164062 5.195312 1.066406 C 5.972656 0.414062 6.605469 -0.386719 7.1875 -1.191406 C 7.769531 -2.015625 8.375 -2.839844 8.933594 -3.667969 C 9.203125 -4.054688 9.445312 -4.441406 9.636719 -4.855469 C 9.785156 -5.148438 10.027344 -5.558594 9.953125 -5.898438 Z M 2.695312 -2.984375 C 2.863281 -3.421875 3.058594 -3.835938 3.277344 -4.25 C 3.324219 -4.320312 3.667969 -5.195312 3.835938 -5.246094 C 3.714844 -5.171875 3.203125 -3.980469 3.082031 -3.761719 L 2.621094 -2.695312 C 2.378906 -2.113281 2.113281 -1.503906 1.941406 -0.875 C 2.113281 -1.601562 2.402344 -2.304688 2.695312 -2.984375 Z M 2.113281 1.675781 C 2.257812 1.871094 2.453125 2.0625 2.71875 2.160156 C 2.5 2.089844 2.304688 1.964844 2.160156 1.820312 C 2.183594 1.820312 2.183594 1.84375 2.183594 1.871094 C 2.039062 1.675781 1.84375 1.261719 1.820312 1.191406 C 1.75 0.898438 1.722656 0.558594 1.75 0.265625 C 1.75 0.0234375 1.773438 -0.171875 1.820312 -0.386719 L 1.820312 -0.363281 C 1.773438 -0.046875 1.75 0.265625 1.773438 0.605469 L 1.773438 0.726562 C 1.75 0.703125 1.75 0.679688 1.75 0.679688 C 1.75 0.679688 1.75 0.703125 1.773438 0.753906 L 1.773438 0.777344 L 1.871094 1.285156 L 1.796875 0.972656 C 1.84375 1.117188 1.964844 1.382812 2.089844 1.652344 L 2.0625 1.625 C 2.0625 1.652344 2.089844 1.675781 2.113281 1.699219 Z M 2.792969 -6.335938 C 2.914062 -6.238281 3.132812 -6.214844 3.351562 -6.191406 C 3.15625 -6.214844 2.984375 -6.265625 2.863281 -6.359375 C 2.863281 -6.359375 2.71875 -6.480469 2.695312 -6.53125 C 2.695312 -6.480469 2.742188 -6.359375 2.792969 -6.335938 Z M 5.339844 -4.441406 L 4.832031 -3.375 L 5.339844 -4.46875 Z M 1.84375 -0.460938 C 1.84375 -0.4375 1.820312 -0.414062 1.820312 -0.386719 L 1.820312 -0.414062 C 1.820312 -0.4375 1.84375 -0.4375 1.84375 -0.460938 Z M 5.367188 -4.515625 L 5.367188 -4.492188 L 5.339844 -4.492188 Z M 5.367188 -4.515625 L 5.367188 -4.492188 L 5.339844 -4.492188 Z M 1.871094 -0.777344 C 1.871094 -0.800781 1.894531 -0.824219 1.894531 -0.875 C 1.894531 -0.824219 1.871094 -0.800781 1.871094 -0.777344 Z M 1.964844 1.457031 C 1.964844 1.457031 1.992188 1.480469 1.992188 1.503906 C 1.992188 1.480469 1.964844 1.480469 1.964844 1.457031 Z M 2.71875 -6.578125 C 2.695312 -6.578125 2.695312 -6.554688 2.695312 -6.554688 Z M 2.71875 -6.578125 "/></g></g></g><g fill="#000000" fill-opacity="1"><g transform="translate(53.96422, 77.363043)"><g><path d="M 12.359375 -5.851562 C 12.332031 -6.386719 11.894531 -5.925781 11.75 -5.730469 C 11.433594 -5.269531 11.144531 -4.78125 10.851562 -4.320312 C 10.195312 -3.324219 9.542969 -2.332031 8.789062 -1.382812 C 6.289062 1.699219 8.035156 -3.789062 7.84375 -3.738281 C 7.746094 -3.714844 7.671875 -3.351562 7.648438 -3.277344 C 7.84375 -4.152344 8.207031 -5.195312 8.667969 -6.046875 C 8.933594 -6.578125 9.25 -7.015625 8.765625 -7.597656 C 7.867188 -8.691406 6.820312 -7.695312 6.238281 -6.945312 C 5.996094 -7.867188 5.511719 -9.226562 4.320312 -9.226562 C 3.789062 -9.226562 3.472656 -8.957031 3.109375 -8.644531 C 2.890625 -8.496094 2.71875 -8.472656 2.523438 -8.304688 C 2.210938 -8.085938 1.992188 -7.746094 1.773438 -7.453125 C 0.945312 -6.238281 0.363281 -4.710938 0.0976562 -3.300781 C -0.0234375 -2.621094 -0.0742188 -1.871094 0.121094 -1.191406 C 0.242188 -0.800781 0.679688 0.0742188 1.238281 0 C 1.261719 0 1.214844 -0.0234375 1.140625 -0.0742188 C 1.480469 0.0234375 1.871094 -0.0234375 2.160156 -0.21875 C 2.183594 -0.171875 1.894531 -0.046875 1.894531 -0.046875 C 2.160156 0.363281 4.152344 -2.039062 4.296875 -2.257812 C 4.613281 -2.695312 4.832031 -3.15625 5.121094 -3.617188 C 5.339844 -3.957031 5.679688 -4.394531 5.925781 -4.757812 C 5.898438 -4.589844 5.898438 -4.371094 5.898438 -4.371094 C 5.460938 -2.984375 5.050781 -1.480469 5.632812 -0.046875 C 5.898438 0.679688 6.554688 1.359375 7.378906 1.214844 C 8.109375 1.09375 8.714844 0.386719 9.152344 -0.171875 C 9.6875 -0.800781 10.148438 -1.503906 10.609375 -2.234375 C 11 -2.890625 11.363281 -3.542969 11.679688 -4.273438 C 11.871094 -4.734375 12.40625 -5.292969 12.359375 -5.851562 Z M 5.390625 -5.679688 C 5.269531 -5.511719 5.148438 -5.339844 5.050781 -5.171875 L 4.417969 -4.273438 C 4.007812 -3.667969 3.570312 -3.082031 3.109375 -2.523438 C 2.984375 -2.355469 2.402344 -1.601562 2.160156 -1.675781 C 1.796875 -1.796875 2.183594 -3.058594 2.234375 -3.253906 C 2.304688 -3.59375 3.59375 -7.332031 3.933594 -7.40625 C 3.496094 -7.429688 2.089844 -3.035156 2.015625 -2.671875 C 2.210938 -3.859375 2.644531 -5.027344 3.132812 -6.117188 C 3.398438 -6.675781 4.007812 -8.15625 4.808594 -8.15625 C 5.246094 -8.15625 5.339844 -7.257812 5.414062 -6.96875 C 5.390625 -7.015625 5.171875 -7.71875 5.148438 -7.695312 C 5.027344 -7.597656 5.511719 -6.265625 5.511719 -6.070312 C 5.511719 -5.875 5.511719 -5.875 5.390625 -5.679688 Z M 5.949219 -4.492188 C 5.949219 -4.492188 6.019531 -4.832031 6.046875 -4.902344 L 6.167969 -5.074219 Z M 5.585938 -5.996094 L 5.585938 -6.238281 C 5.65625 -6.140625 5.65625 -6.070312 5.585938 -5.996094 Z M 5.585938 -5.996094 "/></g></g></g><g fill="#000000" fill-opacity="1"><g transform="translate(64.548913, 77.363043)"><g><path d="M 13.742188 -6.019531 C 13.597656 -5.996094 12.332031 -5.609375 12.40625 -5.414062 C 12.40625 -5.390625 12.453125 -5.367188 12.480469 -5.367188 C 12.066406 -5.195312 11.53125 -5.171875 11.121094 -4.902344 C 10.660156 -4.589844 10.222656 -4.273438 9.734375 -4.007812 C 10.171875 -4.757812 10.585938 -5.558594 10.851562 -6.359375 C 10.949219 -6.652344 11.507812 -8.449219 11.144531 -8.644531 C 11.09375 -8.667969 11.070312 -8.449219 11.046875 -8.328125 C 11.070312 -9.296875 10.753906 -10.78125 9.445312 -10.875 C 8.644531 -10.925781 7.890625 -9.929688 7.453125 -9.394531 C 6.457031 -8.132812 5.585938 -6.773438 4.710938 -5.460938 C 4.46875 -5.097656 2.039062 -1.164062 2.039062 -1.164062 C 2.039062 -1.164062 2.210938 -1.40625 2.429688 -1.722656 C 2.210938 -1.359375 1.992188 -0.972656 1.796875 -0.582031 C 1.894531 -0.945312 2.816406 -3.835938 3.398438 -5.535156 C 3.449219 -5.609375 3.472656 -5.707031 3.496094 -5.777344 L 3.640625 -6.191406 L 3.640625 -6.167969 C 3.859375 -6.820312 4.078125 -7.476562 4.273438 -8.15625 C 4.273438 -8.085938 4.175781 -7.71875 4.199219 -7.71875 C 4.347656 -7.695312 4.539062 -8.714844 4.441406 -8.714844 L 4.371094 -8.59375 C 4.441406 -8.957031 4.5625 -9.128906 4.347656 -9.542969 C 4.175781 -9.90625 3.882812 -10.246094 3.472656 -10.34375 C 2.671875 -10.5625 2.28125 -9.90625 2.332031 -9.273438 C 2.332031 -9.175781 2.453125 -9.128906 2.453125 -9.03125 C 2.453125 -8.910156 2.332031 -8.691406 2.304688 -8.59375 C 2.136719 -8.085938 2.015625 -7.597656 1.820312 -7.113281 C 1.722656 -6.847656 0.824219 -4.320312 0.824219 -4.320312 C 0.875 -4.347656 0.898438 -4.394531 0.921875 -4.441406 C 0.851562 -4.222656 0.777344 -4.007812 0.679688 -3.789062 C 0.65625 -3.8125 0.753906 -3.980469 0.703125 -3.980469 C 0.460938 -4.03125 -0.144531 -1.992188 -0.195312 -1.796875 C -0.292969 -1.335938 -0.414062 -0.898438 -0.582031 -0.4375 C -0.65625 -0.195312 -0.753906 0.046875 -0.824219 0.316406 C -0.824219 0.339844 -0.945312 0.921875 -0.824219 0.703125 C -0.851562 0.777344 -0.875 0.824219 -0.875 0.875 C -0.875 0.851562 -0.898438 0.824219 -0.898438 0.800781 C -0.972656 0.824219 -1.019531 1.335938 -1.019531 1.359375 C -1.117188 1.625 -1.238281 1.820312 -1.359375 2.0625 C -1.675781 2.839844 -1.84375 3.691406 -1.964844 4.515625 C -2.160156 5.777344 -2.742188 7.671875 -2.113281 8.835938 C -1.894531 9.25 -1.214844 10.101562 -0.679688 9.589844 C -0.4375 9.347656 -0.4375 8.789062 -0.414062 8.496094 C -0.265625 7.695312 -0.144531 6.871094 0.0234375 6.070312 L 0.242188 4.953125 C 0.265625 4.902344 0.460938 4.007812 0.386719 4.03125 C 0.339844 4.078125 0.292969 4.152344 0.265625 4.222656 C 0.386719 3.835938 0.558594 3.472656 0.703125 3.058594 C 0.898438 2.476562 1.042969 1.917969 1.335938 1.382812 C 1.675781 0.851562 1.964844 0.265625 2.28125 -0.265625 C 2.523438 -0.703125 2.742188 -1.261719 3.011719 -1.625 C 3.082031 -1.722656 3.230469 -1.773438 3.351562 -1.871094 C 3.59375 -2.136719 3.761719 -2.5 3.957031 -2.792969 C 4.320312 -3.375 4.636719 -3.957031 5.027344 -4.492188 C 5.195312 -4.734375 7.136719 -7.453125 7.332031 -7.625 C 7.285156 -7.597656 7.234375 -7.574219 7.1875 -7.527344 C 7.378906 -7.769531 7.597656 -7.988281 7.792969 -8.183594 C 7.816406 -8.15625 7.648438 -8.011719 7.671875 -7.988281 C 7.71875 -7.964844 8.835938 -8.835938 9.03125 -8.863281 C 9.566406 -8.957031 9.371094 -7.9375 9.296875 -7.671875 C 9.175781 -7.113281 8.863281 -6.578125 8.59375 -6.09375 C 8.449219 -5.828125 8.304688 -5.585938 8.183594 -5.316406 C 8.15625 -5.292969 7.964844 -4.832031 8.035156 -4.878906 L 7.890625 -4.660156 C 7.9375 -4.734375 7.964844 -4.832031 7.964844 -4.832031 C 7.867188 -4.832031 7.746094 -4.417969 7.71875 -4.347656 C 7.574219 -4.101562 7.378906 -3.910156 7.1875 -3.714844 C 6.675781 -3.132812 6.214844 -2.523438 5.707031 -1.964844 C 5.316406 -1.554688 4.808594 -0.824219 4.222656 -0.679688 C 3.8125 -0.582031 3.496094 -0.800781 3.714844 -0.144531 C 3.859375 0.316406 4.394531 1.382812 4.976562 1.382812 C 5.511719 1.382812 6.167969 0.582031 6.480469 0.242188 C 6.847656 -0.171875 7.257812 -0.558594 7.648438 -0.996094 C 7.746094 -1.140625 8.863281 -2.476562 9.03125 -2.550781 L 9.007812 -2.550781 C 9.25 -2.671875 9.492188 -2.574219 9.832031 -2.816406 C 10.027344 -2.960938 10.125 -3.109375 10.34375 -3.253906 C 10.511719 -3.351562 10.585938 -3.472656 10.660156 -3.542969 C 10.660156 -3.542969 10.660156 -3.519531 10.683594 -3.519531 C 10.925781 -3.761719 11.265625 -3.691406 11.582031 -3.910156 C 11.96875 -4.175781 12.453125 -4.515625 12.792969 -4.832031 C 13.230469 -5.21875 13.839844 -5.4375 14.03125 -6.09375 C 13.9375 -6.070312 13.8125 -6.070312 13.742188 -6.019531 Z M 1.3125 -3.542969 L 1.3125 -3.519531 C 1.285156 -3.203125 1.066406 -2.839844 0.945312 -2.550781 C 0.777344 -2.089844 0.632812 -1.625 0.484375 -1.164062 C 0.171875 -0.195312 -0.195312 0.777344 -0.582031 1.699219 C -0.898438 2.476562 -1.191406 3.324219 -1.40625 4.175781 C -1.140625 2.984375 -0.703125 1.820312 -0.363281 0.703125 C -0.046875 -0.316406 0.4375 -1.3125 0.824219 -2.304688 C 0.875 -2.429688 1.335938 -3.398438 1.285156 -3.59375 C 1.3125 -3.570312 1.3125 -3.542969 1.3125 -3.542969 Z M 2.378906 -2.816406 C 2.304688 -2.523438 2.234375 -2.257812 2.136719 -2.015625 C 2.210938 -2.257812 2.28125 -2.550781 2.378906 -2.816406 Z M 5.707031 -6.796875 L 5.246094 -6.117188 C 5.390625 -6.335938 5.535156 -6.578125 5.707031 -6.796875 Z M 9.664062 -3.859375 C 9.6875 -3.933594 9.808594 -3.957031 9.882812 -4.007812 Z M 3.859375 -6.699219 C 3.835938 -6.675781 3.8125 -6.605469 3.789062 -6.507812 Z M 3.691406 -6.289062 L 3.789062 -6.507812 Z M 4.953125 -5.679688 L 4.953125 -5.707031 C 4.976562 -5.730469 4.976562 -5.730469 4.976562 -5.753906 C 5 -5.777344 4.976562 -5.730469 4.953125 -5.679688 Z M 3.691406 -6.289062 C 3.691406 -6.238281 3.667969 -6.214844 3.640625 -6.191406 Z M -1.457031 4.394531 C -1.457031 4.371094 -1.457031 4.371094 -1.433594 4.347656 C -1.433594 4.371094 -1.433594 4.371094 -1.457031 4.394531 Z M 2.523438 -3.109375 C 2.523438 -3.082031 2.5 -3.082031 2.5 -3.082031 Z M 2.523438 -3.109375 "/></g></g></g><g fill="#000000" fill-opacity="1"><g transform="translate(76.784425, 77.363043)"><g><path d="M 13.742188 -6.019531 C 13.597656 -5.996094 12.332031 -5.609375 12.40625 -5.414062 C 12.40625 -5.390625 12.453125 -5.367188 12.480469 -5.367188 C 12.066406 -5.195312 11.53125 -5.171875 11.121094 -4.902344 C 10.660156 -4.589844 10.222656 -4.273438 9.734375 -4.007812 C 10.171875 -4.757812 10.585938 -5.558594 10.851562 -6.359375 C 10.949219 -6.652344 11.507812 -8.449219 11.144531 -8.644531 C 11.09375 -8.667969 11.070312 -8.449219 11.046875 -8.328125 C 11.070312 -9.296875 10.753906 -10.78125 9.445312 -10.875 C 8.644531 -10.925781 7.890625 -9.929688 7.453125 -9.394531 C 6.457031 -8.132812 5.585938 -6.773438 4.710938 -5.460938 C 4.46875 -5.097656 2.039062 -1.164062 2.039062 -1.164062 C 2.039062 -1.164062 2.210938 -1.40625 2.429688 -1.722656 C 2.210938 -1.359375 1.992188 -0.972656 1.796875 -0.582031 C 1.894531 -0.945312 2.816406 -3.835938 3.398438 -5.535156 C 3.449219 -5.609375 3.472656 -5.707031 3.496094 -5.777344 L 3.640625 -6.191406 L 3.640625 -6.167969 C 3.859375 -6.820312 4.078125 -7.476562 4.273438 -8.15625 C 4.273438 -8.085938 4.175781 -7.71875 4.199219 -7.71875 C 4.347656 -7.695312 4.539062 -8.714844 4.441406 -8.714844 L 4.371094 -8.59375 C 4.441406 -8.957031 4.5625 -9.128906 4.347656 -9.542969 C 4.175781 -9.90625 3.882812 -10.246094 3.472656 -10.34375 C 2.671875 -10.5625 2.28125 -9.90625 2.332031 -9.273438 C 2.332031 -9.175781 2.453125 -9.128906 2.453125 -9.03125 C 2.453125 -8.910156 2.332031 -8.691406 2.304688 -8.59375 C 2.136719 -8.085938 2.015625 -7.597656 1.820312 -7.113281 C 1.722656 -6.847656 0.824219 -4.320312 0.824219 -4.320312 C 0.875 -4.347656 0.898438 -4.394531 0.921875 -4.441406 C 0.851562 -4.222656 0.777344 -4.007812 0.679688 -3.789062 C 0.65625 -3.8125 0.753906 -3.980469 0.703125 -3.980469 C 0.460938 -4.03125 -0.144531 -1.992188 -0.195312 -1.796875 C -0.292969 -1.335938 -0.414062 -0.898438 -0.582031 -0.4375 C -0.65625 -0.195312 -0.753906 0.046875 -0.824219 0.316406 C -0.824219 0.339844 -0.945312 0.921875 -0.824219 0.703125 C -0.851562 0.777344 -0.875 0.824219 -0.875 0.875 C -0.875 0.851562 -0.898438 0.824219 -0.898438 0.800781 C -0.972656 0.824219 -1.019531 1.335938 -1.019531 1.359375 C -1.117188 1.625 -1.238281 1.820312 -1.359375 2.0625 C -1.675781 2.839844 -1.84375 3.691406 -1.964844 4.515625 C -2.160156 5.777344 -2.742188 7.671875 -2.113281 8.835938 C -1.894531 9.25 -1.214844 10.101562 -0.679688 9.589844 C -0.4375 9.347656 -0.4375 8.789062 -0.414062 8.496094 C -0.265625 7.695312 -0.144531 6.871094 0.0234375 6.070312 L 0.242188 4.953125 C 0.265625 4.902344 0.460938 4.007812 0.386719 4.03125 C 0.339844 4.078125 0.292969 4.152344 0.265625 4.222656 C 0.386719 3.835938 0.558594 3.472656 0.703125 3.058594 C 0.898438 2.476562 1.042969 1.917969 1.335938 1.382812 C 1.675781 0.851562 1.964844 0.265625 2.28125 -0.265625 C 2.523438 -0.703125 2.742188 -1.261719 3.011719 -1.625 C 3.082031 -1.722656 3.230469 -1.773438 3.351562 -1.871094 C 3.59375 -2.136719 3.761719 -2.5 3.957031 -2.792969 C 4.320312 -3.375 4.636719 -3.957031 5.027344 -4.492188 C 5.195312 -4.734375 7.136719 -7.453125 7.332031 -7.625 C 7.285156 -7.597656 7.234375 -7.574219 7.1875 -7.527344 C 7.378906 -7.769531 7.597656 -7.988281 7.792969 -8.183594 C 7.816406 -8.15625 7.648438 -8.011719 7.671875 -7.988281 C 7.71875 -7.964844 8.835938 -8.835938 9.03125 -8.863281 C 9.566406 -8.957031 9.371094 -7.9375 9.296875 -7.671875 C 9.175781 -7.113281 8.863281 -6.578125 8.59375 -6.09375 C 8.449219 -5.828125 8.304688 -5.585938 8.183594 -5.316406 C 8.15625 -5.292969 7.964844 -4.832031 8.035156 -4.878906 L 7.890625 -4.660156 C 7.9375 -4.734375 7.964844 -4.832031 7.964844 -4.832031 C 7.867188 -4.832031 7.746094 -4.417969 7.71875 -4.347656 C 7.574219 -4.101562 7.378906 -3.910156 7.1875 -3.714844 C 6.675781 -3.132812 6.214844 -2.523438 5.707031 -1.964844 C 5.316406 -1.554688 4.808594 -0.824219 4.222656 -0.679688 C 3.8125 -0.582031 3.496094 -0.800781 3.714844 -0.144531 C 3.859375 0.316406 4.394531 1.382812 4.976562 1.382812 C 5.511719 1.382812 6.167969 0.582031 6.480469 0.242188 C 6.847656 -0.171875 7.257812 -0.558594 7.648438 -0.996094 C 7.746094 -1.140625 8.863281 -2.476562 9.03125 -2.550781 L 9.007812 -2.550781 C 9.25 -2.671875 9.492188 -2.574219 9.832031 -2.816406 C 10.027344 -2.960938 10.125 -3.109375 10.34375 -3.253906 C 10.511719 -3.351562 10.585938 -3.472656 10.660156 -3.542969 C 10.660156 -3.542969 10.660156 -3.519531 10.683594 -3.519531 C 10.925781 -3.761719 11.265625 -3.691406 11.582031 -3.910156 C 11.96875 -4.175781 12.453125 -4.515625 12.792969 -4.832031 C 13.230469 -5.21875 13.839844 -5.4375 14.03125 -6.09375 C 13.9375 -6.070312 13.8125 -6.070312 13.742188 -6.019531 Z M 1.3125 -3.542969 L 1.3125 -3.519531 C 1.285156 -3.203125 1.066406 -2.839844 0.945312 -2.550781 C 0.777344 -2.089844 0.632812 -1.625 0.484375 -1.164062 C 0.171875 -0.195312 -0.195312 0.777344 -0.582031 1.699219 C -0.898438 2.476562 -1.191406 3.324219 -1.40625 4.175781 C -1.140625 2.984375 -0.703125 1.820312 -0.363281 0.703125 C -0.046875 -0.316406 0.4375 -1.3125 0.824219 -2.304688 C 0.875 -2.429688 1.335938 -3.398438 1.285156 -3.59375 C 1.3125 -3.570312 1.3125 -3.542969 1.3125 -3.542969 Z M 2.378906 -2.816406 C 2.304688 -2.523438 2.234375 -2.257812 2.136719 -2.015625 C 2.210938 -2.257812 2.28125 -2.550781 2.378906 -2.816406 Z M 5.707031 -6.796875 L 5.246094 -6.117188 C 5.390625 -6.335938 5.535156 -6.578125 5.707031 -6.796875 Z M 9.664062 -3.859375 C 9.6875 -3.933594 9.808594 -3.957031 9.882812 -4.007812 Z M 3.859375 -6.699219 C 3.835938 -6.675781 3.8125 -6.605469 3.789062 -6.507812 Z M 3.691406 -6.289062 L 3.789062 -6.507812 Z M 4.953125 -5.679688 L 4.953125 -5.707031 C 4.976562 -5.730469 4.976562 -5.730469 4.976562 -5.753906 C 5 -5.777344 4.976562 -5.730469 4.953125 -5.679688 Z M 3.691406 -6.289062 C 3.691406 -6.238281 3.667969 -6.214844 3.640625 -6.191406 Z M -1.457031 4.394531 C -1.457031 4.371094 -1.457031 4.371094 -1.433594 4.347656 C -1.433594 4.371094 -1.433594 4.371094 -1.457031 4.394531 Z M 2.523438 -3.109375 C 2.523438 -3.082031 2.5 -3.082031 2.5 -3.082031 Z M 2.523438 -3.109375 "/></g></g></g><g fill="#000000" fill-opacity="1"><g transform="translate(89.019936, 77.363043)"><g><path d="M 9.710938 -6.191406 C 9.371094 -5.828125 9.152344 -5.21875 8.886719 -4.78125 C 8.472656 -4.078125 8.058594 -3.398438 7.625 -2.71875 C 6.796875 -1.40625 5.972656 -0.0742188 4.976562 1.117188 C 4.5625 1.625 3.691406 2.863281 2.863281 2.769531 C 2.257812 2.671875 2.257812 1.625 2.257812 1.164062 C 2.257812 0.777344 2.28125 0.386719 2.332031 0.0234375 C 2.355469 -0.195312 2.550781 -0.921875 2.429688 -1.117188 L 2.234375 -0.386719 C 2.257812 -0.679688 2.304688 -0.996094 2.378906 -1.285156 C 2.355469 -1.335938 2.574219 -2.015625 2.621094 -2.234375 C 2.742188 -2.71875 2.863281 -3.203125 3.011719 -3.691406 C 3.132812 -4.175781 3.253906 -4.636719 3.398438 -5.097656 C 3.519531 -5.535156 3.691406 -5.753906 3.957031 -6.09375 C 5.050781 -7.453125 6.046875 -8.933594 6.96875 -10.414062 C 7.308594 -10.972656 7.527344 -11.460938 7.9375 -11.921875 C 8.546875 -12.550781 8.957031 -13.5 9.347656 -14.277344 C 10.003906 -15.539062 10.875 -17.285156 10.730469 -18.765625 L 10.730469 -18.886719 L 10.707031 -18.914062 C 10.5625 -19.859375 9.6875 -20.976562 8.617188 -20.636719 C 8.058594 -20.464844 7.648438 -19.882812 7.308594 -19.472656 L 6.75 -18.71875 C 6.628906 -18.574219 6.457031 -18.207031 6.335938 -18.015625 L 6.359375 -18.039062 L 5.585938 -16.703125 L 5.777344 -17.117188 C 5.65625 -17.140625 5.121094 -16.097656 5.050781 -15.976562 C 4.78125 -15.515625 4.539062 -15.050781 4.320312 -14.589844 C 3.835938 -13.621094 3.351562 -12.625 3.035156 -11.582031 C 2.695312 -10.535156 2.304688 -9.515625 1.941406 -8.472656 C 1.75 -7.914062 1.554688 -7.332031 1.382812 -6.773438 C 1.238281 -6.3125 0.898438 -5.558594 0.972656 -5.074219 L 1.042969 -5.074219 C 0.972656 -4.902344 0.921875 -4.734375 0.875 -4.5625 C 0.898438 -4.710938 0.898438 -4.878906 0.921875 -4.929688 C 0.800781 -4.757812 0.824219 -4.175781 0.800781 -4.128906 C 0.484375 -2.816406 0.121094 -1.503906 0.0234375 -0.144531 C -0.046875 1.140625 -0.046875 2.839844 0.972656 3.789062 C 2.113281 4.832031 3.421875 4.128906 4.371094 3.230469 C 5.488281 2.136719 6.433594 0.851562 7.308594 -0.414062 C 8.109375 -1.578125 8.742188 -2.816406 9.46875 -3.980469 C 9.761719 -4.46875 10.074219 -4.953125 10.222656 -5.488281 C 10.316406 -5.875 10.269531 -6.773438 9.710938 -6.191406 Z M 6.675781 -14.882812 C 7.164062 -16.046875 7.648438 -17.238281 8.328125 -18.332031 C 8.496094 -18.597656 9.589844 -20.054688 9.542969 -18.765625 L 9.542969 -18.742188 C 9.492188 -17.382812 8.617188 -15.949219 8.035156 -14.785156 L 7.015625 -12.890625 C 6.675781 -12.308594 6.09375 -11.582031 5.898438 -10.949219 C 6.046875 -11.339844 6.480469 -11.894531 6.699219 -12.261719 C 7.066406 -12.867188 7.378906 -13.472656 7.71875 -14.082031 C 8.277344 -15.148438 8.886719 -16.265625 9.296875 -17.433594 C 8.207031 -14.179688 6.167969 -11.144531 4.371094 -8.253906 C 5.074219 -10.390625 5.777344 -12.722656 6.675781 -14.882812 Z M 5.898438 -16.582031 C 6.140625 -17.042969 6.578125 -17.433594 6.820312 -17.867188 C 6.3125 -16.847656 5.679688 -15.925781 5.148438 -14.957031 C 5.148438 -14.980469 5.148438 -15.027344 5.171875 -15.050781 C 5.390625 -15.585938 5.632812 -16.074219 5.898438 -16.582031 Z M 1.3125 -4.03125 C 1.285156 -3.980469 1.285156 -3.957031 1.285156 -3.957031 C 0.996094 -3.277344 0.972656 -2.355469 0.824219 -1.625 C 0.800781 -1.457031 0.753906 -1.3125 0.753906 -1.140625 L 0.753906 -1.214844 L 0.679688 -0.4375 C 0.726562 -1.3125 0.824219 -2.210938 0.996094 -3.058594 L 0.996094 -3.035156 C 1.066406 -3.59375 1.191406 -4.101562 1.285156 -4.101562 C 1.335938 -4.128906 1.335938 -4.054688 1.3125 -4.03125 Z M 1.3125 -4.03125 "/></g></g></g><g fill="#000000" fill-opacity="1"><g transform="translate(97.613925, 77.363043)"><g><path d="M 9.296875 -5.996094 C 9.296875 -5.972656 9.296875 -5.972656 9.273438 -5.996094 L 9.273438 -6.019531 C 8.886719 -6.675781 8.375 -5.777344 8.15625 -5.460938 C 7.746094 -4.902344 7.355469 -4.371094 6.917969 -3.859375 C 6.554688 -3.421875 6.167969 -2.984375 5.875 -2.523438 C 5.875 -2.476562 5.828125 -2.355469 5.828125 -2.355469 C 5.730469 -2.210938 5.585938 -2.089844 5.460938 -1.941406 C 5.246094 -1.722656 5.027344 -1.480469 4.78125 -1.261719 C 4.417969 -0.921875 2.378906 0.996094 2.113281 -0.242188 C 1.964844 -0.851562 2.160156 -1.601562 2.28125 -2.183594 C 2.355469 -2.5 2.429688 -2.792969 2.476562 -3.109375 C 2.523438 -3.351562 2.453125 -3.59375 2.574219 -3.835938 C 2.644531 -3.980469 2.671875 -3.957031 2.839844 -4.007812 L 3.253906 -4.152344 C 3.519531 -4.25 3.789062 -4.347656 4.03125 -4.492188 C 4.394531 -4.710938 4.734375 -4.976562 5.050781 -5.246094 C 5.800781 -5.875 6.605469 -6.628906 6.917969 -7.574219 C 7.089844 -8.109375 7.113281 -8.691406 6.773438 -9.152344 C 6.457031 -9.566406 5.925781 -9.785156 5.4375 -9.882812 C 4.128906 -10.125 3.132812 -9.371094 2.378906 -8.375 C 1.457031 -7.234375 0.800781 -5.828125 0.484375 -4.394531 C 0.316406 -3.691406 0.21875 -2.984375 0.0976562 -2.257812 C -0.0234375 -1.53125 -0.0976562 -0.851562 0.292969 -0.171875 C 0.265625 -0.414062 0.21875 -0.632812 0.21875 -0.851562 C 0.21875 -0.972656 0.265625 -1.09375 0.265625 -1.191406 C 0.265625 -1.238281 0.21875 -1.382812 0.21875 -1.457031 C 0.21875 -1.675781 0.265625 -1.84375 0.316406 -2.0625 C 0.339844 -2.28125 0.316406 -2.5 0.339844 -2.71875 C 0.363281 -2.960938 0.460938 -3.15625 0.558594 -3.375 C 0.632812 -3.570312 0.65625 -3.738281 0.726562 -3.933594 C 0.800781 -4.101562 0.851562 -4.296875 0.921875 -4.492188 C 0.945312 -4.613281 1.066406 -4.757812 1.140625 -4.902344 C 1.066406 -4.6875 0.921875 -4.492188 0.875 -4.296875 C 0.800781 -4.007812 0.851562 -3.691406 0.824219 -3.398438 C 0.777344 -3.082031 0.679688 -2.769531 0.632812 -2.429688 C 0.582031 -2.113281 0.4375 -1.820312 0.386719 -1.503906 C 0.339844 -1.214844 0.242188 -0.996094 0.265625 -0.703125 C 0.265625 -0.535156 0.292969 -0.363281 0.316406 -0.21875 C 0.339844 -0.0234375 0.460938 0.0976562 0.582031 0.242188 C 0.996094 0.726562 1.554688 1.117188 2.183594 1.285156 C 2.621094 1.40625 3.011719 1.382812 3.421875 1.164062 C 4.007812 0.851562 4.515625 0.363281 4.953125 -0.0976562 C 5.367188 -0.558594 5.679688 -1.066406 6.046875 -1.554688 C 6.386719 -1.992188 6.796875 -2.402344 7.136719 -2.839844 L 8.449219 -4.539062 L 9.203125 -5.535156 C 9.324219 -5.679688 9.394531 -5.800781 9.296875 -5.996094 Z M 3.277344 -5.730469 C 3.300781 -5.777344 3.300781 -5.800781 3.300781 -5.800781 C 3.667969 -6.578125 3.933594 -7.40625 4.441406 -8.15625 L 4.878906 -8.742188 C 4.976562 -8.863281 5.148438 -9.082031 5.316406 -9.128906 C 5.679688 -9.203125 5.777344 -8.570312 5.753906 -8.328125 L 5.65625 -7.816406 C 5.632812 -7.671875 5.679688 -7.574219 5.65625 -7.453125 C 5.609375 -7.308594 5.488281 -7.234375 5.414062 -7.113281 L 5 -6.578125 C 4.441406 -5.925781 3.738281 -5.367188 2.960938 -4.953125 C 3.082031 -5.21875 3.15625 -5.488281 3.277344 -5.730469 Z M 3.277344 -5.730469 "/></g></g></g></svg>